<!-- Generator: Adobe Illustrator 22.1.0, SVG Export Plug-In  -->
<svg version="1.1"
	 xmlns="http://www.w3.org/2000/svg" xmlns:xlink="http://www.w3.org/1999/xlink" xmlns:a="http://ns.adobe.com/AdobeSVGViewerExtensions/3.0/"
	 x="0px" y="0px" width="687.4px" height="531.1px" viewBox="0 0 687.4 531.1" style="enable-background:new 0 0 687.4 531.1;"
	 xml:space="preserve">
<style type="text/css">
	.st0{fill:#353738;}
	.st1{fill:#6A8379;}
	.st2{fill:#984D3C;}
	.st3{fill:#BEBEBE;}
</style>
<defs>
</defs>
<g>
	<g>
		<path class="st0" d="M275.7,212.7c11.7,0,19.9-1.4,24.3-4.2c4.5-2.8,6.7-9.3,6.7-19.5v-35.2c0-5.6-1.7-10.2-5.2-13.8
			c-3.4-3.6-8.1-5.4-14-5.4c-6.9,0-11.8,2.2-14.7,6.5c-2.9,4.3-4.4,8.6-4.4,12.6v22.2h-39.1v-22.6c0-7.9,1.5-15.4,4.6-22.6
			c3.1-7.1,7.3-13.3,12.6-18.4c5.4-5.1,11.6-9.2,18.8-12.3c7.1-3.1,14.8-4.6,23-4.6c10.7,0,19.6,2.1,26.6,6.3
			c7,4.2,12.3,8.5,15.9,12.8c2.5,3.1,4.8,6.1,6.7,9.2c1.9,3.1,3.5,6.8,4.8,11.1c2.3,8.4,3.4,20.9,3.4,37.5c0,9.4-0.2,17.1-0.6,23
			c-0.4,5.9-1.3,10.7-2.9,14.6c-1.8,4.1-4.3,7.5-7.5,10.3c-3.2,2.8-7.6,5.9-13.2,9.2c6.1,3.8,10.8,7.4,14,10.7
			c3.2,3.3,5.6,7.2,7.1,11.5c1.5,4.6,2.4,10,2.7,16.3c0.3,6.3,0.4,14.2,0.4,23.9c0,8.9-0.2,16.3-0.6,22.2c-0.4,5.9-1,10.7-1.7,14.6
			c-0.8,4.1-1.8,7.5-3.1,10.3c-1.3,2.8-2.9,5.7-5,8.8c-4.9,7.2-11,13.1-18.6,17.8c-7.5,4.7-17.4,7.1-29.7,7.1
			c-6.1,0-12.6-1-19.5-3.1c-6.9-2-13.2-5.4-18.8-10c-5.6-4.6-10.3-10.6-14-18c-3.7-7.4-5.6-16.5-5.6-27.2v-22.2h39.1v20.3
			c0,6.1,1.7,11.2,5.2,15.1c3.4,4,8.1,5.9,14,5.9c5.9,0,10.5-2,14-5.9c3.4-4,5.2-9.3,5.2-15.9v-39.1c0-10.7-2-17.7-6.1-21.1
			c-2.3-2-5.4-3.3-9.4-3.8c-4-0.5-9.1-0.8-15.5-0.8V212.7z"/>
		<path class="st1" d="M287.2,374.3c-6.2,0-13-1.1-20-3.1c-7.1-2.1-13.5-5.5-19.3-10.2c-5.8-4.7-10.6-10.9-14.4-18.5
			c-3.8-7.6-5.7-16.9-5.7-27.9v-23.7h42.1v21.8c0,5.7,1.6,10.5,4.8,14.1c3.2,3.6,7.4,5.4,12.8,5.4s9.7-1.8,12.8-5.4
			c3.2-3.7,4.8-8.7,4.8-14.9v-39.1c0-10.2-1.9-16.9-5.6-19.9c-2.1-1.9-5-3-8.6-3.5c-3.9-0.5-9-0.8-15.3-0.8h-1.5v-37.5h1.5
			c11.4,0,19.3-1.3,23.5-4c4-2.5,6-8.6,6-18.3v-35.2c0-5.3-1.6-9.4-4.8-12.7c-3.2-3.3-7.4-4.9-12.9-4.9c-6.4,0-10.8,1.9-13.5,5.9
			c-2.8,4.1-4.1,8-4.1,11.8v23.7h-42.1v-24.1c0-8.1,1.6-15.9,4.7-23.2c3.1-7.3,7.5-13.7,13-18.9c5.5-5.2,11.9-9.4,19.2-12.5
			C272,95.6,280,94,288.3,94c10.9,0,20.2,2.2,27.4,6.5c7.1,4.3,12.6,8.7,16.3,13.2c2.6,3.1,4.9,6.3,6.8,9.4c2,3.2,3.6,7,5,11.5
			c2.3,8.5,3.5,21.3,3.5,38c0,9.4-0.2,17.2-0.6,23.1c-0.4,6-1.4,11.1-3,15c-1.9,4.3-4.5,8-7.9,10.9c-2.8,2.5-6.7,5.2-11.4,8.1
			c5.2,3.4,9.3,6.6,12.2,9.6c3.3,3.5,5.8,7.5,7.4,12c1.6,4.7,2.5,10.3,2.8,16.7c0.3,6.4,0.4,14.4,0.4,24c0,8.9-0.2,16.4-0.6,22.3
			c-0.4,5.9-1,10.9-1.8,14.8c-0.8,4.2-1.8,7.8-3.2,10.7c-1.3,2.9-3,5.9-5.1,9c-5,7.3-11.4,13.4-19,18.2
			C309.9,371.8,299.6,374.3,287.2,374.3z M230.8,293.8v20.7c0,10.4,1.8,19.4,5.4,26.5c3.6,7.2,8.2,13.1,13.6,17.5
			c5.4,4.4,11.6,7.7,18.2,9.7c6.7,2,13.2,3,19.1,3c11.9,0,21.6-2.3,28.9-6.9c7.3-4.6,13.4-10.4,18.1-17.4c2-3,3.6-5.9,4.9-8.6
			c1.2-2.7,2.2-6.1,3-10c0.8-3.8,1.3-8.6,1.7-14.4c0.4-5.8,0.6-13.3,0.6-22.1c0-9.5-0.1-17.6-0.4-23.9c-0.3-6.1-1.1-11.4-2.6-15.9
			c-1.4-4.1-3.7-7.8-6.7-10.9c-3.1-3.2-7.7-6.8-13.7-10.5l-2.1-1.3l2.1-1.3c5.5-3.3,9.9-6.3,13-9c3-2.6,5.4-6,7.1-9.8
			c1.4-3.6,2.4-8.4,2.8-14.1c0.4-5.8,0.6-13.5,0.6-22.9c0-16.4-1.1-28.9-3.4-37.1c-1.2-4.2-2.8-7.8-4.6-10.7c-1.9-3-4.1-6-6.6-9
			c-3.5-4.2-8.7-8.4-15.5-12.5c-6.8-4.1-15.5-6.1-25.8-6.1c-7.9,0-15.5,1.5-22.4,4.5c-6.9,3-13.1,7-18.3,12
			c-5.2,4.9-9.3,11-12.3,17.9c-3,6.9-4.5,14.3-4.5,22v21.1h36.1v-20.7c0-4.4,1.6-8.9,4.7-13.5c3.2-4.8,8.6-7.2,16-7.2
			c6.3,0,11.3,2,15.1,5.8c3.7,3.9,5.6,8.8,5.6,14.8v35.2c0,10.9-2.4,17.7-7.4,20.8c-4.6,2.9-12.3,4.3-23.6,4.4v31.5
			c5.7,0,10.5,0.3,14.2,0.8c4.2,0.6,7.7,2,10.2,4.2c4.4,3.6,6.6,10.9,6.6,22.2v39.1c0,7-1.9,12.7-5.5,16.9
			c-3.7,4.3-8.8,6.5-15.1,6.5s-11.4-2.2-15.1-6.5c-3.7-4.2-5.5-9.6-5.5-16.1v-18.8H230.8z"/>
	</g>
	<g>
		<path class="st0" d="M371.8,154.1c0-9.2,1.6-17.4,4.8-24.5c3.2-7.1,7.5-13.3,12.8-18.4c5.4-5.1,11.5-9,18.6-11.7
			c7-2.7,14.4-4,22-4c7.7,0,15,1.3,22,4c7,2.7,13.2,6.6,18.6,11.7c5.4,5.1,9.6,11.2,12.8,18.4c3.2,7.2,4.8,15.3,4.8,24.5v160.1
			c0,9.2-1.6,17.4-4.8,24.5c-3.2,7.2-7.5,13.3-12.8,18.4c-5.4,5.1-11.6,9-18.6,11.7c-7,2.7-14.4,4-22,4c-7.7,0-15-1.3-22-4
			c-7-2.7-13.2-6.6-18.6-11.7c-5.4-5.1-9.6-11.2-12.8-18.4c-3.2-7.1-4.8-15.3-4.8-24.5V154.1z M410.9,314.2c0,5.6,1.8,10.3,5.4,14
			c3.6,3.7,8.2,5.6,13.8,5.6c5.6,0,10.2-1.8,13.8-5.6c3.6-3.7,5.4-8.4,5.4-14V154.1c0-5.6-1.8-10.3-5.4-14
			c-3.6-3.7-8.2-5.6-13.8-5.6c-5.6,0-10.2,1.9-13.8,5.6c-3.6,3.7-5.4,8.4-5.4,14V314.2z"/>
		<path class="st1" d="M430,374.3c-7.8,0-15.4-1.4-22.6-4.1c-7.2-2.7-13.6-6.8-19.1-12c-5.5-5.2-9.9-11.6-13.2-18.9
			c-3.3-7.3-4.9-15.7-4.9-25.1V154.1c0-9.4,1.7-17.8,4.9-25.1c3.3-7.3,7.7-13.6,13.2-18.9c5.5-5.2,11.9-9.3,19.1-12
			c7.2-2.7,14.7-4.1,22.6-4.1c7.8,0,15.4,1.4,22.6,4.1c7.2,2.7,13.6,6.8,19.1,12c5.5,5.2,9.9,11.6,13.2,18.9
			c3.3,7.3,4.9,15.8,4.9,25.1v160.1c0,9.4-1.7,17.8-4.9,25.1c-3.3,7.3-7.7,13.7-13.2,18.9c-5.5,5.2-11.9,9.3-19.1,12
			C445.4,372.9,437.8,374.3,430,374.3z M430,97c-7.4,0-14.7,1.3-21.5,3.9c-6.8,2.6-12.9,6.4-18.1,11.4c-5.2,5-9.4,11-12.5,17.9
			c-3.1,6.9-4.7,15-4.7,23.9v160.1c0,9,1.6,17,4.7,23.9c3.1,6.9,7.3,13,12.5,17.9c5.2,4.9,11.3,8.8,18.1,11.4
			c6.8,2.6,14,3.9,21.5,3.9c7.4,0,14.7-1.3,21.5-3.9c6.8-2.6,12.9-6.4,18.1-11.4c5.2-4.9,9.4-11,12.5-17.9c3.1-6.9,4.7-15,4.7-23.9
			V154.1c0-8.9-1.6-17-4.7-23.9c-3.1-6.9-7.3-13-12.5-17.9c-5.2-4.9-11.3-8.8-18.1-11.4C444.7,98.3,437.5,97,430,97z M430,335.2
			c-6,0-11-2-14.9-6c-3.8-4-5.8-9-5.8-15V154.1c0-6,1.9-11,5.8-15c3.9-4,8.9-6,14.9-6c6,0,11,2,14.9,6c3.8,4,5.8,9,5.8,15v160.1
			c0,6-1.9,11-5.8,15C441,333.2,436,335.2,430,335.2z M430,136c-5.2,0-9.4,1.7-12.7,5.1c-3.3,3.4-4.9,7.7-4.9,12.9v160.1
			c0,5.3,1.6,9.5,4.9,12.9c3.3,3.4,7.5,5.1,12.7,5.1c5.2,0,9.4-1.7,12.7-5.1c3.3-3.4,4.9-7.7,4.9-12.9V154.1c0-5.3-1.6-9.5-4.9-12.9
			C439.4,137.7,435.3,136,430,136z"/>
	</g>
</g>
<g>
	<path class="st2" d="M205,139.4H204l-1.2-2.4l0.7-0.8c6.6-7.4,12.8-15.5,18.6-23.9c5.8-8.4,10.5-17.4,14.1-26.6
		c0.3-0.8,0.8-2.5,1.5-5.1c0.7-2.7,1.5-5.4,2.3-8.3c0.9-2.9,1.8-5.5,2.7-7.7c0.8-2,2-4.2,4-4.2c0.5,0,1.4,0.1,5.1,1.6
		c2.5,1,5.2,2.2,7.9,3.5c2.8,1.3,5.4,2.6,7.9,3.8c3.4,1.7,4.3,2.3,4.7,2.7l1,0.8l-0.5,1.1c-0.4,0.7-1.1,1.4-2.4,2.2
		c-1.1,0.7-1.7,1.2-1.9,1.4c-1.8,1.6-3.2,3.3-4.4,5.1c-1.2,2-2.4,4-3.4,6c-1.1,2.1-2.1,4.2-3.1,6.2c-1.1,2.2-2.3,4.3-3.8,6.3
		c-1.2,1.7-3,3.9-5.2,6.5c-2.3,2.5-4.8,5.2-7.6,8c-2.8,2.8-5.9,5.6-9.1,8.4c-3.2,2.7-6.5,5.3-9.6,7.6c-3.2,2.3-6.3,4.2-9.1,5.6
		C210.1,138.7,207.3,139.4,205,139.4z M246.9,63.5c-0.2,0.1-0.7,0.7-1.4,2.4c-0.9,2.1-1.8,4.6-2.6,7.4c-0.8,2.8-1.6,5.5-2.3,8.2
		c-0.7,2.7-1.2,4.5-1.6,5.4c-3.7,9.5-8.5,18.7-14.4,27.3c-5.3,7.7-11,15.1-16.9,22c1.2-0.3,2.6-0.8,4.1-1.6c2.7-1.3,5.7-3.1,8.7-5.3
		c3.1-2.2,6.2-4.7,9.4-7.4s6.2-5.5,8.9-8.2c2.8-2.8,5.3-5.4,7.5-7.9c2.2-2.4,3.9-4.5,5-6.2c1.4-1.9,2.5-3.8,3.5-5.8
		c1-2.1,2.1-4.2,3.2-6.3c1.1-2.1,2.3-4.2,3.5-6.2c1.3-2.1,2.9-4,4.9-5.7c0.4-0.5,1.2-1,2.4-1.8c0.1,0,0.1-0.1,0.2-0.1
		c-0.6-0.3-1.5-0.8-2.6-1.4c-2.4-1.2-5-2.5-7.7-3.8c-2.7-1.3-5.4-2.4-7.8-3.4C248.1,63.8,247.2,63.6,246.9,63.5z M337.9,138.2
		c-2,0-4-0.4-6-1c-2.1-0.7-3.9-2-5.3-3.7c-1-1.3-1.8-3-2.5-5c-0.6-1.8-1.2-3.5-1.8-4.9c-1.1-3-2.1-6.2-3.1-9.4c-1-3.1-2-6.2-3.2-9.2
		c-1.2-3-2.5-6-3.9-8.8c-1.4-2.8-3.1-5.6-4.9-8.2c-0.6-0.8-1.7-2.1-3.1-3.9c-1.4-1.8-2.9-3.6-4.5-5.5c-1.6-1.9-3-3.8-4.1-5.6
		c-1.3-2.1-1.9-3.6-1.9-4.7c0-1.3,0.8-2.8,3.1-2.8c3.6,0,7.6,0.9,11.7,2.7c4.1,1.8,8.1,4.1,12.1,7.1c4,2.9,7.8,6.3,11.4,10.1
		c3.6,3.8,6.9,7.7,9.7,11.8c2.8,4.1,5,8.2,6.7,12.2c1.7,4.1,2.6,8.1,2.6,11.7c0,1.9-0.2,3.9-0.7,5.8c-0.5,2-1.2,3.8-2.3,5.5
		c-1.1,1.7-2.4,3.1-4.1,4.1C342.2,137.6,340.2,138.2,337.9,138.2z M296.6,68.5c0.1,0.4,0.4,1.3,1.4,2.9c1.1,1.7,2.4,3.5,3.9,5.3
		c1.6,1.9,3.1,3.7,4.5,5.5c1.4,1.8,2.5,3.1,3.2,4c2,2.8,3.7,5.6,5.2,8.6c1.5,2.9,2.8,6,4,9.1c1.2,3.1,2.3,6.3,3.3,9.4
		c1,3.1,2,6.2,3,9.2c0.5,1.4,1.1,3.1,1.8,4.9c0.6,1.7,1.3,3.1,2,4.2c1,1.2,2.2,2.1,3.9,2.7c1.7,0.6,3.4,0.9,5.1,0.9
		c1.7,0,3.2-0.4,4.4-1.2c1.3-0.8,2.3-1.9,3.2-3.3c0.9-1.4,1.5-2.9,1.9-4.5c0.4-1.7,0.6-3.4,0.6-5.1c0-3.2-0.8-6.8-2.4-10.5
		c-1.6-3.9-3.8-7.8-6.5-11.7c-2.7-3.9-5.8-7.8-9.3-11.4c-3.5-3.6-7.2-6.9-11.1-9.7c-3.8-2.8-7.7-5.1-11.5-6.7
		C303.4,69.3,299.9,68.5,296.6,68.5C296.6,68.5,296.6,68.5,296.6,68.5z M349,42.7H207.2c-1.4,0-2.3-0.9-2.3-2.3
		c0-1.4,0.9-2.3,2.3-2.3H265c0,0,0.1,0,0.1,0c0,0,0-0.1,0-0.1V3.1c0-1.8,1-2.9,2.7-3c0.9-0.1,1.7-0.1,2.3-0.1c0.8,0,2.3,0,4.6,0.1
		c2.3,0.1,4.8,0.2,7.3,0.4c2.5,0.2,4.8,0.6,6.8,1.1c2.7,0.7,4,1.8,4,3.5c0,1.1-0.7,2.3-2.2,3.5c-0.5,0.4-1.1,1-1.1,1.6v27.4
		c0,0,0,0.1,0,0.1c0,0,0.1,0,0.1,0h27.4c0.3,0,1.2,0,2.3-1.6c1-1.5,2.1-3.1,3.1-4.9c1.1-1.8,2.1-3.6,3.2-5.1c1.2-1.9,2.5-2.9,4-3.3
		c0.9-0.3,1.8,0.2,3.3,1.2c1.1,0.8,2.5,1.7,4,2.9c1.5,1.1,3.1,2.4,4.8,3.8c1.7,1.4,3.2,2.7,4.7,3.8c1.5,1.2,2.7,2.3,3.7,3.2
		c1.5,1.5,1.8,1.9,1.8,2.6C351.8,41.4,351,42.7,349,42.7z M207.2,39.7l0,1.5L207.2,39.7C207.2,39.7,207.2,39.7,207.2,39.7z M349,41
		L349,41L349,41z M319.8,39.7h28c-0.9-0.9-2-1.9-3.4-3c-1.5-1.2-3-2.5-4.7-3.9c-1.7-1.4-3.2-2.6-4.7-3.7c-1.5-1.1-2.8-2-3.9-2.8
		c-0.6-0.4-0.9-0.6-1.1-0.7c-0.6,0.2-1.3,0.9-1.9,1.9c-1,1.5-2,3.2-3.1,5c-1.1,1.8-2.2,3.6-3.3,5.1
		C321.1,38.6,320.5,39.3,319.8,39.7z M267.7,39.7h19.6c-0.5-0.5-0.8-1.3-0.8-2.2V10.2c0-1.4,0.8-2.8,2.2-4c0.7-0.5,0.9-0.9,1.1-1.1
		c-0.2-0.1-0.7-0.4-1.7-0.6c-1.8-0.5-4-0.8-6.4-1c-2.4-0.2-4.8-0.3-7.1-0.4C272.4,3,270.9,3,270.1,3c-0.6,0-1.3,0-2,0.1c0,0,0,0,0,0
		V38C268.1,38.7,267.9,39.3,267.7,39.7z M289.5,37.8L289.5,37.8L289.5,37.8z"/>
	<path class="st2" d="M375.5,144.7c-0.4,0-0.8,0-1.3-0.1c-1.2-0.2-2-1.1-2-2.4c0-14.4-0.1-29.1-0.3-43.5
		c-0.2-14.2-0.4-28.9-0.5-43.5l-0.2-26.7c0-2.4-0.1-4.9-0.2-7.3c-0.1-2.5-0.1-5,0.2-7.5c0-0.4,0.1-0.8,0.2-1.2
		c0.5-1.4,1.6-1.5,1.9-1.5c1,0,2.4,0.4,4.7,1.4c2,0.9,4.2,1.8,6.4,2.9c2.2,1.1,4.4,2,6.3,2.9c2.4,1.1,3.4,1.2,3.7,1.2h85.6l0.6-0.2
		c0.4-0.4,0.9-1,1.7-1.8c1-1,2-2.1,3-3.1c1-1,2-2,3-2.9c1.4-1.2,2.2-1.7,2.9-1.7c0.6,0,1.2,0.1,3.9,2.1c1.7,1.2,3.6,2.6,5.6,4.2
		c2,1.6,3.8,3.1,5.4,4.5c2.3,2,2.9,2.7,3.1,3.2l0.1,0.1l0.4,1.1v0.3c0,1-0.5,1.9-1.4,2.5c-0.5,0.3-1.1,0.7-1.7,1
		c-0.5,0.3-1,0.6-1.4,1c-0.2,0.2-0.3,0.4-0.3,0.7v105.2c0,1.5-1,2.7-2.9,3.7c-1.5,0.7-3.2,1.4-5,1.9c-1.8,0.5-3.6,0.9-5.4,1.1
		c-1.8,0.2-3,0.3-3.7,0.3c-1.1,0-1.9,0-2.4-0.1c-1.3-0.2-2.1-1.4-2.6-2.5l-0.1-0.2c-0.1-0.3-0.2-0.9-0.5-2.6
		c-0.2-1.3-0.3-2.7-0.4-4.2c-0.1-1.5-0.2-2.9-0.2-4.3c0-1-0.1-1.8-0.1-2.3l-1.3,1.3l-1.7,0.7H398c-0.3,0-0.7-0.1-1.1-0.3
		c0,0-0.1,0-0.1-0.1h-0.5l-0.4-0.4c-0.1-0.1-0.1-0.1-0.2-0.2c-0.2,6.1-2.1,10.5-5.7,13.1C386.4,143.4,381.5,144.7,375.5,144.7z
		 M375.2,141.7c0.1,0,0.2,0,0.3,0c5.3,0,9.6-1.2,12.7-3.5c3-2.2,4.5-6.2,4.5-11.7c0-0.2-0.1-0.5-0.3-0.8c-0.6-0.8-0.8-1.6-0.8-2.5
		V25.6c0-1.9,1.2-3.1,3.1-3.1h14c1.5,0,3.1,0.9,3.1,3.4c0,7.9-0.1,16-0.2,23.9c-0.2,8.1-1.2,16.1-3,23.9c-0.5,1.7-1.2,3.7-2.2,6
		c-0.9,2.2-2,4.5-3,6.8c-1,2.2-1.9,4.4-2.6,6.4c-0.6,1.8-0.9,3.3-0.9,4.4c0.5-0.1,1.1-0.3,1.6-0.7c1-0.7,1.8-1.3,2.5-1.9
		c3.9-3.6,7.3-7.5,10.1-11.6c2.8-4.1,5.1-8.4,6.8-12.8c1.8-4.5,3.2-9.2,4.1-14c0.9-4.9,1.6-10.1,2.1-15.5c0.1-2.1,0.1-4.6,0.1-7.6
		c-0.1-3.1,0.3-5.8,1-8c0.2-0.8,0.9-2,2.8-2.5c0.6-0.2,1.2-0.3,1.8-0.4h-38.2c-1.1,0-2.6-0.4-4.9-1.4c-2-0.9-4.1-1.8-6.4-2.9
		c-2.2-1.1-4.3-2-6.3-2.9c-1.3-0.6-2.1-0.9-2.7-1c-0.2,2.3-0.2,4.6-0.1,7c0.1,2.5,0.2,5,0.2,7.5l0.2,26.7
		c0.1,14.6,0.3,29.3,0.5,43.5C375.1,113,375.2,127.5,375.2,141.7z M486.2,139.6c0.3,0,0.9,0,1.8,0c0.6,0,1.7-0.1,3.4-0.3
		c1.7-0.2,3.3-0.5,5-1c1.7-0.5,3.2-1,4.5-1.7c1-0.5,1.3-0.9,1.3-1V30.5c0-1.2,0.5-2.2,1.3-3c0.6-0.6,1.3-1,2-1.4
		c0.5-0.3,1-0.6,1.5-0.9l-0.1-0.2c-0.1-0.1-0.5-0.7-2.4-2.3c-1.6-1.4-3.4-2.8-5.3-4.4c-2-1.5-3.8-2.9-5.5-4.1
		c-1.2-0.8-1.8-1.2-2.2-1.4c-0.2,0.1-0.5,0.4-1,0.8c-1,0.9-1.9,1.8-2.9,2.8c-1,1-2,2-2.9,3c-1,1-1.6,1.7-2,2l-0.2,0.2l-1.7,0.7
		h-43.5c0.2,0,0.5,0,0.7,0.1c1,0.1,1.8,0.2,2.4,0.2c1.9,0,3.1,1.2,3.1,3.1v59.5c0,1.4,0.4,2.4,1.1,3.2c0.9,0.9,2,1.5,3.3,2
		c1.4,0.5,2.9,0.8,4.5,0.9c1.7,0.1,3.2,0.2,4.5,0.2c2,0,4-0.2,5.9-0.7c2.1-0.5,4.1-1,6.1-1.5c2-0.5,4.1-1.1,6.1-1.5
		c2.1-0.5,4.3-0.8,6.5-0.8c1.6,0,2.6,0.2,3.2,0.7c0.7,0.6,1,1.6,1,3.3c0,5.9-0.2,11.8-0.6,17.6c-0.4,5.7-0.6,11.6-0.6,17.4
		c0,0.4,0,1.3,0.1,2.6c0.1,1.3,0.1,2.7,0.2,4.2c0.1,1.4,0.2,2.8,0.4,4c0.2,1.3,0.3,1.8,0.3,2C485.9,139.3,486.1,139.5,486.2,139.6z
		 M397.1,124.5h82.8l1.7,1.7c0-0.1,0-0.2,0-0.2c0-5.9,0.2-11.9,0.6-17.6c0.4-5.7,0.6-11.6,0.6-17.4c0-0.5,0-0.8-0.1-1
		c-0.2,0-0.6-0.1-1.2-0.1c-2,0-4,0.2-5.8,0.7c-2,0.5-4,1-6,1.5c-2,0.5-4,1-6.1,1.5c-2.1,0.5-4.4,0.8-6.6,0.8c-1.3,0-2.9-0.1-4.7-0.2
		c-1.9-0.1-3.7-0.5-5.3-1.1c-1.7-0.6-3.2-1.5-4.4-2.7c-1.4-1.3-2.1-3.1-2.1-5.3V25.6c0,0,0-0.1,0-0.1c0,0-0.1,0-0.1,0
		c-0.7,0-1.6-0.1-2.7-0.2c-2-0.2-4.2-0.3-5.9,0.2c-0.6,0.2-0.7,0.4-0.7,0.5c-0.6,1.9-0.9,4.3-0.8,7.1c0.1,3,0,5.7-0.1,7.8
		c-0.4,5.5-1.1,10.9-2.1,15.9c-1,5.1-2.4,10-4.3,14.6c-1.9,4.6-4.3,9.1-7.2,13.4c-2.9,4.3-6.5,8.4-10.6,12.2
		c-0.8,0.7-1.8,1.4-2.8,2.1c-1.3,0.9-2.6,1.3-4,1.3c-0.4,0-1.3-0.1-1.9-1.3c-0.3-0.5-0.4-1-0.4-1.4c-0.1-1.6,0.2-3.5,1.1-5.8
		c0.8-2.1,1.7-4.4,2.7-6.6c1-2.3,2-4.5,3-6.7c0.9-2.2,1.6-4.1,2-5.6c1.8-7.5,2.8-15.4,2.9-23.2c0.2-7.9,0.2-16,0.2-23.9
		c0-0.2,0-0.4,0-0.4c0,0,0,0-0.1,0h-14c0,0-0.1,0-0.1,0c0,0,0,0.1,0,0.1v97.7c0,0.2,0.1,0.5,0.3,0.7c0.3,0.4,0.5,0.8,0.6,1.2
		l0.1-0.1C395.8,124.9,396.3,124.5,397.1,124.5z M440.4,25.4L440.4,25.4L440.4,25.4z M480.7,77.2c-2.6,0-3.8-1.3-4.4-2.3
		c-0.7-1.2-1.2-2.4-1.4-3.8c-0.2-1-0.4-1.9-0.5-2.8c-0.4,0.9-0.8,1.9-1.3,3.1c-0.6,1.4-1.5,2.6-2.4,3.7c-1.2,1.3-2.8,2-5,2
		c-1.4,0-2.9-0.4-4.5-1.2c-2.4-1.2-2.9-3.1-2.9-4.5V25.6c0-1.9,1.2-3.1,3.1-3.1h20.3c1.9,0,3.1,1.2,3.1,3.1v47.8
		c0,0.5,0,2.2-1.2,3.1C482.8,76.9,481.9,77.2,480.7,77.2z M474.8,64.4c0.6,0,2.2,0.3,2.5,2.9c0.1,1,0.3,2,0.5,3.2
		c0.2,1,0.6,2,1.1,2.9c0.2,0.4,0.6,0.8,1.8,0.8c0.5,0,0.7,0,0.9-0.1c0-0.1,0.1-0.3,0.1-0.7V25.6c0,0,0-0.1,0-0.1c0,0-0.1,0-0.1,0
		h-20.3c0,0-0.1,0-0.1,0c0,0,0,0.1,0,0.1v45.7c0,0.6,0.1,1.2,1.3,1.8c1.2,0.6,2.2,0.9,3.2,0.9c1.3,0,2.2-0.3,2.7-1
		c0.8-0.9,1.4-1.9,1.9-3c0.6-1.2,1-2.3,1.4-3.3C472.5,64.7,474,64.4,474.8,64.4z M474.8,67.4L474.8,67.4
		C474.8,67.4,474.8,67.4,474.8,67.4C474.8,67.4,474.8,67.4,474.8,67.4z M461.2,25.4L461.2,25.4L461.2,25.4z"/>
</g>
<g>
	<path class="st2" d="M171.4,409c-0.9,0-2.1-0.5-2.4-2.1c-0.2-0.9,0.1-1.6,0.4-1.9c0.3-0.4,0.9-0.8,2-0.8h74.4
		c0.2-0.1,0.4-0.5,0.9-1c0.8-1.1,1.7-2.3,2.7-3.6c1-1.4,1.9-2.6,2.8-3.7c1.3-1.6,2.1-2.2,3-2.2c0.7,0,1.5,0.3,3.6,1.8
		c1.4,1,3,2.2,4.6,3.5c1.6,1.3,3,2.6,4.3,3.7c1.8,1.7,2.4,2.4,2.4,3.3c0,1.1-0.6,1.9-1.6,2.1c-0.4,0.1-0.8,0.2-1.2,0.2
		c-4.4,0-8.8,0-13.1,0.1c-4.3,0-8.7,0.1-13.1,0.2c-9.6,0.1-19.3,0.2-28.9,0.3c-9.5,0-19.1,0.1-28.8,0.1c-1.9,0-3.9,0-5.9,0.1
		C175.5,409,173.4,409,171.4,409z M267.2,406.5L267.2,406.5L267.2,406.5z M255.4,396.9c-0.2,0.2-0.5,0.5-0.9,1
		c-0.9,1-1.8,2.2-2.7,3.5c-1,1.3-1.9,2.6-2.8,3.7c-0.1,0.1-0.2,0.3-0.3,0.4c1.8,0,3.6,0,5.4-0.1c3.9,0,7.9,0,11.9-0.1
		c-0.1-0.1-0.2-0.2-0.3-0.3c-1.2-1.1-2.6-2.3-4.2-3.6c-1.5-1.3-3-2.4-4.4-3.4C256.2,397.3,255.7,397,255.4,396.9z M245.6,404.3
		C245.6,404.3,245.6,404.3,245.6,404.3S245.6,404.3,245.6,404.3z M254.6,369.8h-70.7c-1.2,0-2-0.9-2-2s0.9-2,2-2h49.3
		c0.1-0.1,0.4-0.4,0.8-0.9c0.7-0.9,1.6-1.9,2.5-3.1c0.9-1.2,1.7-2.3,2.5-3.4c0.8-1.1,1.2-1.8,1.4-2.1l0.3-0.4l1.5-0.6l0.5,0.2
		c0.4,0.1,1.2,0.5,3.2,2c1.4,1.1,2.9,2.2,4.5,3.5c1.5,1.3,3,2.5,4.2,3.6c1.9,1.8,2.4,2.3,2.4,3.1c0,0.9-0.5,1.6-1.4,1.9
		C255.2,369.7,254.9,369.8,254.6,369.8z M254.5,366.8L254.5,366.8C254.6,366.8,254.6,366.8,254.5,366.8
		C254.6,366.8,254.5,366.8,254.5,366.8z M236.2,366.8h16.2c-1.2-1.1-2.6-2.3-4.1-3.5c-1.5-1.2-3-2.4-4.4-3.4c-0.8-0.6-1.3-1-1.7-1.2
		c-0.3,0.4-0.6,0.9-1,1.5c-0.8,1.1-1.6,2.3-2.5,3.5C237.9,364.8,237,365.9,236.2,366.8z M254.6,366.7
		C254.6,366.7,254.6,366.7,254.6,366.7C254.6,366.7,254.6,366.7,254.6,366.7z M262.8,334.8h-85.9c-0.4,0-1.7-0.1-2.2-2
		c-0.2-0.9,0.1-1.6,0.3-1.9c0.3-0.4,0.9-0.8,2-0.8h63.3c0.1-0.1,0.4-0.4,0.8-0.9c0.8-0.9,1.6-2,2.5-3.2c0.9-1.2,1.7-2.4,2.6-3.5
		c0.9-1.2,1.5-1.9,1.9-2.4l0.4-0.4h1.4l0.3,0.1c0.7,0.3,1.8,0.9,3.3,1.9c1.5,0.9,3,2,4.6,3.1c1.6,1.1,3.1,2.3,4.3,3.4
		c1.5,1.5,2.2,2.6,2.2,3.7c0,0.7-0.4,1.2-0.7,1.6c-0.3,0.3-0.5,0.6-0.7,0.7L262.8,334.8z M242.8,331.8h18.7
		c-0.2-0.2-0.5-0.7-1.2-1.3c-1.1-1-2.4-2.1-4-3.2c-1.5-1.1-3-2.1-4.5-3c-1.1-0.7-1.8-1.1-2.3-1.4c-0.3,0.3-0.6,0.8-1.1,1.4
		c-0.8,1.1-1.7,2.3-2.6,3.5c-0.9,1.2-1.8,2.3-2.6,3.3C243.2,331.3,243,331.6,242.8,331.8z"/>
	<path class="st2" d="M340.6,419.2c-1.5,0-2.6-1-2.6-2.6v-54.9l-1.9,0.9h-36.8c-0.3,0-0.6-0.1-0.9-0.2h-0.4l-0.4-0.4
		c-0.2-0.1-0.3-0.3-0.4-0.5l-0.9-0.9l1-1c0.2-0.2,0.7-0.5,1.4-0.5h38c0.7,0,1.1,0.3,1.4,0.5l0,0v-39.4c0-1.5,1-2.5,2.6-2.5
		c0.9,0,1.9,0.1,2.8,0.2c0.8,0.1,1.6,0.3,2.4,0.4c2.2,0.3,4.4,0.5,6.6,0.6c2.3,0.1,4.7,0.3,7,0.7l0.6,0.1l1.3,1.7l-1.1,1.8l-0.4,0.2
		c-0.1,0.1-0.4,0.2-0.8,0.4c-0.4,0.2-0.9,0.5-1.3,0.8c-0.4,0.2-0.7,0.5-1.1,0.7v17c0,4.3,0,9.1-0.1,14.2l0,2.2
		c0.4-0.2,0.9-0.2,1.1-0.2h14.6c0.7,0,1.5-0.8,2-1.4c1-1.3,1.9-2.6,2.8-4.1c0.9-1.5,1.7-2.9,2.4-4.2c0.7-1.3,1.7-2.8,3.1-2.8
		c0.6,0,1.2,0.3,2.2,1.1c0.6,0.5,1.3,1.1,2,1.7c0.7,0.6,1.4,1.2,2,1.8c0.6,0.6,1,1,1.2,1.2c0.3,0.2,0.8,0.7,1.6,1.3
		c0.8,0.7,1.6,1.4,2.4,2.1c0.9,0.7,1.7,1.4,2.4,2.1c0.9,0.8,1.5,1.5,1.6,2.2c0.1,0.9-0.2,1.7-0.8,2.3c-0.6,0.5-1.3,0.7-2.1,0.7H359
		c-0.3,0-0.7-0.1-1.2-0.3c-0.4-0.2-0.7-0.3-1.1-0.5c0,0-0.1,0-0.1-0.1l-0.2,25.5c0,4.9-0.1,9.3-0.2,13.1c-0.1,3.8-0.1,6.9-0.2,9.3
		c-0.1,3.9-0.2,4.1-0.4,4.4l-0.1,0.1c-0.7,1.1-1.7,2-3.1,2.7c-1.2,0.6-2.6,1-4.1,1.4c-1.4,0.3-2.9,0.6-4.4,0.7
		C342.7,419.1,341.5,419.2,340.6,419.2z M341,320.7v95.5c0.8,0,1.7-0.1,2.8-0.2c1.3-0.1,2.7-0.4,4-0.7c1.3-0.3,2.5-0.7,3.5-1.2
		c0.8-0.4,1.3-0.8,1.7-1.3c0-0.3,0.1-1.2,0.1-3.3c0.1-2.4,0.1-5.5,0.2-9.3c0.1-3.7,0.1-8.1,0.2-13l0.2-30.7c0-5.2,0.1-9.9,0.1-14.2
		v-17.6c0-0.8,0.6-1.3,1.1-1.7c0.4-0.3,0.7-0.6,1.2-0.8c-1.2-0.1-2.5-0.2-3.7-0.2c-2.3-0.1-4.7-0.3-7-0.7c-0.8-0.1-1.6-0.3-2.4-0.4
		C342.2,320.8,341.6,320.7,341,320.7z M352.9,413.1L352.9,413.1L352.9,413.1z M395.2,360.3L395.2,360.3L395.2,360.3z M376.2,359.6
		h18.4c0,0,0,0-0.1-0.1c-0.7-0.6-1.5-1.3-2.3-2c-0.9-0.7-1.7-1.4-2.5-2.1c-0.8-0.7-1.3-1.1-1.5-1.3L388,354
		c-0.2-0.2-0.6-0.6-1.3-1.2c-0.6-0.6-1.3-1.2-2-1.8c-0.7-0.6-1.3-1.1-1.9-1.6c-0.1-0.1-0.1-0.1-0.2-0.2c-0.1,0.2-0.3,0.5-0.6,0.9
		c-0.7,1.3-1.5,2.8-2.4,4.3c-0.9,1.6-1.9,3.1-3,4.5C376.5,359.2,376.4,359.4,376.2,359.6z"/>
	<path class="st2" d="M478.3,420c-1.5,0-2.6-1-2.6-2.6v-25.7l-0.1,0.2c-0.4,0.5-0.9,0.9-1.8,1.1c-0.6,0.2-1.2,0.3-1.6,0.3h-44.8
		l-1.4-0.6l-0.9-1.3l0.8-1.9l0.7-0.2c0.3-0.1,0.7-0.2,3.1-0.2c1.5,0,3.2-0.1,5.1-0.1h8.2l0-30.6c0-1,0.2-1.9,0.5-2.5
		c0.5-0.9,1.5-1.4,3-1.4c0.7,0,1.4,0.1,2.1,0.4c3.7,1.4,7.3,2.6,10.6,3.5c3.2,0.9,6.9,1.4,10.8,1.4c0.1,0,0.4,0,0.9,0
		c1.1-0.1,2.2-0.1,3.1,0c1.1,0.1,1.6,0.7,1.8,1.2v-22.3c-0.5,0-1.3,0-2.3,0c-2.7,0.1-5.7,0.1-8.1,0c-1.7-0.1-2.4-0.2-2.8-0.4
		l-1.3-0.7c-0.1,0.3-0.3,0.6-0.6,0.8l-13.1,13c-0.7,0.7-1.6,1.4-2.6,1.9c-0.8,0.4-1.5,0.9-2.2,1.4c-2.2,1.7-4.4,3.4-6.4,5.2
		c-2.2,1.9-4.7,3.4-7.4,4.6l-0.7,0.3l-1.9-1.3l0.3-1.1c0.1-0.4,0.4-1.2,1.7-3.3c0.9-1.4,1.8-3,2.9-4.6c1-1.6,2.1-3.2,3.1-4.8
		c1-1.5,1.7-2.6,2.1-3.3c1.8-3.1,3.5-6.3,5-9.5c1.5-3.2,3-6.5,4.4-9.8c0.5-1.1,0.9-2.2,1.3-3.3c0.4-1.1,0.8-2.2,1.2-3.3
		c0.1-0.5,0.3-1,0.5-1.6c0.2-0.6,0.4-1.1,0.7-1.6l0.1-0.2c0.6-0.8,1.5-1.3,2.5-1.3c0.5,0,1.4,0.1,4.1,1c1.9,0.6,3.8,1.3,5.8,2.2
		c2,0.8,3.8,1.7,5.4,2.4c2,1,3.2,1.9,3.2,3.2c0,1-0.7,1.7-2,2.8c-0.9,0.8-2,1.7-3,2.7c-1,1-2,2-3,3.2c-0.7,0.9-1.1,1.7-1.1,2.3v1
		c0,0.2,0,0.4,0,0.5l0.6-0.9c0.3-0.5,0.9-0.9,2-1.3c0.9-0.4,1.6-0.5,2.1-0.5h35.4l0.2-0.1c0.2-0.2,0.6-0.7,1.3-1.6
		c0.8-1,1.6-2.1,2.5-3.2c0.9-1.1,1.7-2.1,2.5-3c1.1-1.3,1.7-1.8,2.5-1.8c0.6,0,1.3,0.3,2.4,1c0.8,0.5,1.7,1.2,2.7,1.9
		c1,0.8,2.1,1.6,3.2,2.5c1.1,0.9,2.1,1.7,3,2.5c0.9,0.8,1.7,1.5,2.3,2.1c0.9,0.9,1.4,1.3,1.4,2.1c0,1.3-1,2-1.9,2h-29.4
		c0,7.3,0,14.6,0,21.8l1-1l0.7,0.1c1,0.1,1.9-0.1,2.8-0.6c1-0.6,2-1.3,2.9-2.2c0.9-0.9,1.8-1.9,2.5-3c0.8-1.1,1.4-2.2,2-3.2l0.3-0.5
		l1.4-0.6l0.4,0.1c0.5,0.1,1.2,0.4,3,1.8c1.3,1,2.6,2,4,3.1c1.4,1.1,2.7,2.2,3.9,3.3c1.7,1.5,2.1,2.1,2.4,2.5l0.4,0.7l-0.8,1.7
		l-1.5,0.7h-24.4l-1-1c0,0.4,0,0.7,0,1.1c0,8.3-0.1,16.7-0.1,25.1c0,0.2,0,0.5,0.2,0.7c0.1,0.2,0.2,0.4,0.2,0.7
		c0.3-0.3,0.9-0.6,1.9-0.7c0.7,0,1.1-0.1,1.3-0.1c1.1,0,2.2,0,3.3,0.1c0.7,0,1.4-0.2,2.1-0.7c0.6-0.4,1.1-1,1.6-1.8
		c0.6-1,1.2-1.9,1.9-2.9c0.7-1,1.4-2,2.2-2.8c0.9-1,1.9-1.7,3-2l0.5-0.2l1.4,0.5l0.2,0.2c0.3,0.3,1,0.8,2.6,1.9c1.4,1,2.8,2,4.3,3
		c1.5,1.1,2.8,2.1,4,3.1c1.6,1.4,2.2,2.3,2.2,3.2c0,0.5-0.2,1.7-2,2.2c-0.8,0.2-1.3,0.3-1.8,0.3h-25.7c-0.3,0-0.6-0.1-1.5-0.3
		c-0.4-0.1-1-0.3-1.5-0.7c-0.1,0.2-0.1,0.5-0.2,0.7c-0.1,0.2-0.2,0.5-0.2,0.7v21c0,0.9-0.4,2.5-2.7,3.5c-1.3,0.5-2.8,1-4.5,1.2
		c-1.6,0.3-3.2,0.4-4.8,0.5C480,419.9,479,420,478.3,420z M478.6,337.4c0.1,0.3,0.2,0.6,0.2,1V417c0.6,0,1.5,0,2.8-0.1
		c1.5-0.1,3-0.2,4.5-0.5c1.4-0.2,2.7-0.6,3.8-1c0.6-0.2,0.9-0.5,0.9-0.8v-21c0-0.6,0.1-1.3,0.4-1.9c0.1-0.2,0.2-0.5,0.2-0.7
		c0-0.2,0-0.5-0.2-0.7c-0.3-0.6-0.4-1.2-0.4-1.9c0-8.4,0-16.8,0.1-25.1c0-8.3,0.1-16.7,0.1-25.1c0-0.3,0.1-0.7,0.2-1H478.6z
		 M469.3,388.9c1,0,1.9,0,2.8,0.1c1.8,0.1,2.8,0.5,3.4,1.2l0.2,0.3v-28c-0.2,0.7-0.9,1.3-1.7,1.4c-0.4,0.1-0.8,0.1-1.1,0.1
		c-0.4,0.1-1.2,0.1-3.2-0.1c-1.4-0.1-2.9-0.2-4.5-0.3c-1.5-0.1-2.8,0-3.9,0.1c-0.2,0-0.4,0.1-0.5,0.1v25.5c0.5,0,1.3,0,2.5-0.1
		c1.4-0.1,2.9-0.1,4.5-0.2C468.3,388.9,468.8,388.9,469.3,388.9z M505.1,390.3h17.7c0,0,0,0,0.1,0c-0.2-0.1-0.3-0.3-0.6-0.5
		c-1.1-0.9-2.4-1.9-3.8-3c-1.4-1-2.8-2-4.2-3c-1.2-0.8-2-1.4-2.6-1.9c-0.4,0.2-0.8,0.6-1.2,1c-0.7,0.7-1.3,1.6-1.9,2.4
		c-0.6,1-1.3,1.9-1.8,2.9C506.3,389.1,505.7,389.8,505.1,390.3z M445.7,390.3h12.2c-0.1-0.2-0.1-0.5-0.1-0.7v-26.3
		c0-0.4,0.1-1.2,0.9-1.8c-0.1,0-0.2-0.1-0.4-0.1c-3.4-1-7.1-2.2-10.9-3.6c-0.7-0.2-1.3-0.2-1.5-0.2c0,0.2-0.1,0.4-0.1,0.8v31
		C445.9,389.7,445.8,390,445.7,390.3z M473.5,360.8C473.5,360.8,473.5,360.8,473.5,360.8C473.5,360.8,473.5,360.8,473.5,360.8z
		 M501.7,360.4H517c-0.1-0.1-0.2-0.2-0.3-0.3c-1.1-1-2.4-2.1-3.8-3.2c-1.3-1.1-2.7-2.1-3.9-3c-0.6-0.4-1-0.7-1.3-0.9
		c-0.5,0.8-1,1.6-1.6,2.5c-0.8,1.3-1.8,2.4-2.9,3.5C502.8,359.5,502.3,359.9,501.7,360.4z M452,318.9c-0.2,0.3-0.3,0.7-0.4,1.1
		c-0.2,0.5-0.3,1-0.5,1.5l0,0.1c-0.4,1.1-0.8,2.2-1.2,3.3c-0.4,1.1-0.9,2.3-1.4,3.5c-1.4,3.3-2.9,6.7-4.5,9.9
		c-1.5,3.2-3.3,6.5-5.1,9.7c-0.4,0.7-1.2,1.9-2.2,3.4c-1,1.5-2,3.1-3,4.7c-0.8,1.3-1.6,2.5-2.2,3.6c1.1-0.7,2.1-1.4,3-2.2
		c2.1-1.8,4.3-3.6,6.6-5.3c0.9-0.6,1.7-1.2,2.6-1.6c0.7-0.4,1.3-0.8,1.8-1.3l12.9-12.8v-0.9c0-1.3,0.6-2.8,1.8-4.2
		c1-1.2,2.1-2.4,3.2-3.5c1.1-1,2.2-2,3.2-2.8c0.2-0.1,0.3-0.2,0.4-0.3c-0.2-0.2-0.6-0.3-1-0.6c-1.5-0.8-3.3-1.6-5.2-2.4
		c-1.9-0.8-3.8-1.5-5.6-2.1C452.7,319,452.1,319,452,318.9L452,318.9z M522.4,337.5L522.4,337.5L522.4,337.5z M504.3,335.7h16.3
		c-0.3-0.3-0.7-0.6-1-0.9c-0.9-0.8-1.9-1.6-2.9-2.5c-1-0.9-2.1-1.7-3-2.4c-1-0.7-1.8-1.3-2.6-1.8c-0.2-0.1-0.3-0.2-0.4-0.3
		c-0.1,0.1-0.3,0.3-0.5,0.5c-0.7,0.8-1.5,1.8-2.4,2.9c-0.9,1.1-1.7,2.2-2.5,3.2C504.9,335,504.5,335.4,504.3,335.7z M510.1,327.6
		L510.1,327.6L510.1,327.6z"/>
</g>
<g>
	<path class="st3" d="M26.7,516.8v7.4c2.2,0.4,4.9,0.6,8,0.6c2.8,0.1,7,0,12.6,0c-0.9,1.6-1.6,3.4-2.1,5.5c0,0.1,0,0.2,0,0.2H34.3
		c-7.4,0-13.1-1.2-17.1-3.6c-2.3-1.4-4.3-3.3-6-5.7c-1.9,4.4-4.2,7.7-6.8,9.9c-1.1-1.3-2.5-2.5-4-3.6c-0.2-0.1-0.3-0.2-0.4-0.2
		c4.3-3.4,7-9.1,8.3-17.1c0.1-0.9,0.2-1.8,0.3-2.7l6.2,0.7c-0.4,2.1-0.8,4.3-1.4,6.6c1.7,3.4,4.1,5.9,7.2,7.5v-16.8H1.7v-5.6h18.9
		V495H6.1v-5.5h14.5v-5.1h6.1v5.1h15.4v5.5H26.7v4.8H46v5.6H26.7v6.1h16v5.3H26.7z"/>
	<path class="st3" d="M92.5,507.1v12.5c1.8,2.9,5.2,4.6,10.3,4.9c0.3,0,0.6,0,0.8,0c6.7,0.3,14,0.2,21.7-0.3c0.8,0,1.5-0.1,2.1-0.1
		c-0.9,2-1.5,4-1.9,5.9c-7.8,0.4-15.2,0.4-22.1,0.1c-5.2-0.3-9.1-1.5-11.7-3.7c-0.7-0.6-1.3-1.2-1.8-1.9c-2.6,2.3-5,4.3-7.1,6.1
		l-2.8-6.1c2.4-1.5,4.7-3,6.6-4.6v-7.5h-5.6v-5.5H92.5z M93.4,500.3l-4.2,4.2c-1.5-1.8-4-3.6-7.4-5.6c-0.3-0.2-0.5-0.3-0.7-0.4
		l3.9-3.8c3.7,1.9,6.4,3.7,8.3,5.5C93.3,500.2,93.3,500.2,93.4,500.3z M95.1,490.6l-4.2,4.1c-1.5-1.8-3.8-3.8-7-5.8
		c-0.3-0.2-0.6-0.3-0.8-0.5l4-3.7c3.2,1.8,5.8,3.6,7.7,5.6C94.9,490.4,95,490.5,95.1,490.6z M97.3,522.8v-21.1
		c-0.1,0.1-0.3,0.2-0.5,0.4c-0.2,0.2-0.3,0.3-0.4,0.4c-0.9-1.3-2.3-2.6-4-4c-0.2-0.1-0.4-0.2-0.5-0.3c3.6-3,6.5-6.9,8.7-11.8
		c0.3-0.7,0.6-1.4,0.9-2l5.8,1.7c-0.7,1.8-1.7,3.7-3,6h5.7c1-2.5,1.9-4.9,2.4-7.4l6.5,1.2c-0.5,1.2-1.4,3.2-2.9,6.2h9.5v5h-10.4v3
		h8.5v4.8h-8.5v3.1h8.3v4.8h-8.3v3.2h11.1v5h-23.3v1.8H97.3z M109.6,500.2v-3h-6.5v3H109.6z M109.6,508.1V505h-6.5v3.1H109.6z
		 M109.6,516.1v-3.2h-6.5v3.2H109.6z"/>
	<path class="st3" d="M171,484.6l5.5,1.8c-1.3,3.4-2.9,6.7-4.6,10V531h-5.9v-25.4c-1.2,1.6-2.2,2.8-3.1,3.8c-0.7-1.8-1.7-3.7-3-5.7
		c-0.1-0.1-0.1-0.2-0.2-0.3c3.9-3.9,7.1-8.8,9.8-14.7C170,487.3,170.5,485.9,171,484.6z M188,525h10.2c1.5,0,2.4-0.4,2.9-1.3
		c0.4-0.9,0.7-2.7,1-5.5c1.7,1,3.5,1.8,5.4,2.3c-0.4,4.1-1.3,6.8-2.7,8.2c-1.3,1.2-3.3,1.8-6.1,1.8h-11c-3.8,0-6.3-0.7-7.6-2.2
		c-1.1-1.3-1.6-3.5-1.6-6.6v-13.7l-3.7,1.5l-2.3-5.3l6-2.3V490h5.9v9.5l4.9-1.9v-12.9h5.5v10.7l5.1-1.9l0.7-0.6l1.1-0.8l4,1.6
		l-0.2,0.9c-0.1,9.4-0.2,15.1-0.4,16.9c-0.3,2.3-1.2,3.8-2.8,4.5c-1.2,0.5-3.1,0.7-5.7,0.7c-0.1-2.1-0.6-4-1.3-5.4
		c1.5,0.1,2.5,0.1,3.1,0.1c0.7,0,1.1-0.4,1.3-1.1c0,0,0-0.1,0-0.1c0.2-0.9,0.3-4.5,0.3-10.7l-5.2,2.1v17.8h-5.5v-15.6l-4.9,1.9v16
		c0,1.6,0.3,2.6,0.8,3C185.6,524.9,186.5,525,188,525z"/>
	<path class="st3" d="M268.6,487.1v19H260V531h-5.5v-43.8c-1.1,3.1-2.2,6-3.5,8.6v35.3h-5.7v-25c-1,1.5-2,2.9-3.1,4.1
		c-0.6-1.9-1.5-3.9-2.7-6.1c-0.1-0.1-0.1-0.2-0.2-0.3c3.7-4.2,6.7-9.8,9.1-16.8c0.3-0.8,0.6-1.7,0.8-2.5l5.5,1.6l-0.3,1H268.6z
		 M264.1,491.6H260v2.8h4.1V491.6z M260,501.6h4.1v-2.9H260V501.6z M285.8,487.1v37.1c0,2.7-0.6,4.5-1.9,5.3
		c-0.3,0.2-0.5,0.3-0.8,0.4c-1.7,0.7-5,1.1-9.9,1.1c-0.2-1.7-0.8-3.6-1.9-5.8c2.7,0.2,5.2,0.2,7.5,0.1c0.8-0.1,1.3-0.5,1.3-1.2v-18
		h-9.2v-19H285.8z M280,491.6h-4.4v2.8h4.4V491.6z M275.6,501.6h4.4v-2.9h-4.4V501.6z"/>
	<path class="st3" d="M351.8,492.1h14.1c0,0,0,0.9,0,2.7c-0.5,15.5-1.1,25.1-1.8,28.9c-0.4,1.9-0.8,3.2-1.5,4
		c-1.1,1.4-2.5,2.3-4.2,2.7c-0.2,0-0.4,0.1-0.5,0.1c-1.5,0.2-4.2,0.2-7.9,0.1c-0.1-1.9-0.7-3.7-1.8-5.6c-0.1-0.1-0.1-0.2-0.1-0.2
		c2.2,0.2,4.7,0.3,7.5,0.3c0.9,0,1.6-0.3,2.2-0.8c1-1.1,1.8-6.4,2.2-15.8c0.1-3,0.3-6.7,0.4-11h-10.7c-1.4,3.2-2.9,5.8-4.4,7.9
		c-0.8-0.7-2.1-1.7-3.9-2.8V526H328v3.6h-5.4v-37.1h5.7c0.7-2.9,1.2-5.6,1.4-8.1l6.5,0.9c-0.8,2.3-1.6,4.7-2.6,7.2h7.8v8.1
		c2.9-4.2,5.1-9.6,6.7-16.1l5.7,1.3C353.4,487.2,352.8,489.3,351.8,492.1z M335.9,505.8v-8.1h-8v8.1H335.9z M328,520.7h8v-9.8h-8
		V520.7z M357.6,514.9l-5.1,3.1c-1.3-2.7-3.6-6.6-6.9-11.6l4.6-2.6C353.9,509,356.4,512.7,357.6,514.9z"/>
	<path class="st3" d="M400.4,497.4v-4.7h20.5v4.7H400.4z M418.8,513.4v15.1h-10.9v2h-5.1v-17H418.8z M402.8,504.2v-4.5h16.1v4.5
		H402.8z M402.8,510.9v-4.4h16.1v4.4H402.8z M419,486v4.5h-15.9V486H419z M413.5,518.1h-5.7v5.8h5.7V518.1z M431.7,525.1h7.1
		c1.1,0,1.8-0.4,2.2-1.3c0.4-0.9,0.6-2.9,0.8-6.1c1.4,1,3.1,1.7,5.2,2.2c0.1,0,0.2,0,0.2,0c-0.4,4.6-1.2,7.5-2.5,8.9
		c-1.1,1.2-2.9,1.8-5.5,1.8h-8.2c-3.4,0-5.6-0.7-6.7-2c-0.9-1.2-1.4-3.2-1.4-6.1v-19.6h15.8v-10.4h-15.9v-5.7h21.8v24.2h-6v-2.4H429
		v14c0,1.2,0.3,2,0.8,2.2C430.2,525,430.8,525.1,431.7,525.1z"/>
	<path class="st3" d="M482.2,494.3l3.8,0.5c0.1,5.5-0.7,10-2.2,13.6c-0.1,0.2-0.1,0.4-0.2,0.6l-3.7-1.6c1.5-2.8,2.2-7.1,2.3-12.8
		C482.2,494.5,482.2,494.4,482.2,494.3z M497.7,502.2l-3.7,1.5c-0.2-2-0.8-4.5-1.9-7.5v34.9h-5.6v-46.6h5.6v9.4l2.6-0.9
		c0.7,1.6,1.4,3.2,1.9,4.7v-1.9h6.7c-0.3-1-0.7-2.2-1.3-3.5l0.9-0.2h-5.2v-4.3h10.9v-3.3h5.9v3.3h10.6v4.3h-4.1
		c-0.5,1.3-1.1,2.5-1.6,3.7h7.3v4.5h-29.5C497.6,501.1,497.7,501.8,497.7,502.2z M498.1,530.3l-4.3-2.7c2.2-2,3.7-4.9,4.4-8.8
		l4.8,1.4C502,524.9,500.4,528.3,498.1,530.3z M527.5,527.7l-4.4,2.5c-0.5-1.4-1.2-2.9-2.3-4.7c-0.4,2.7-1.3,4.3-2.7,4.9
		c-0.7,0.3-1.6,0.4-2.7,0.4H510c-2.7,0-4.5-0.6-5.2-1.8c-0.5-0.9-0.8-2.3-0.8-4.2V519h4.3c-0.7-0.5-1.4-0.9-2-1.2l1.3-1.3h-8.2V502
		h25.1v14.5h-12.4c1.9,1.3,3.2,2.4,3.9,3.2L513,523c-0.7-0.9-2-2-3.8-3.4v5.1c0,0.7,0.1,1.2,0.4,1.3c0.2,0.1,0.6,0.1,1.1,0.1h3.9
		c0.7,0,1.1-0.3,1.3-0.8c0.1-0.5,0.2-1.3,0.2-2.4c0.9,0.7,2.2,1.3,4,1.7c-1-1.5-2.1-2.9-3.2-4.2l4.2-2.2c3,3.2,5.1,6.2,6.2,9
		C527.4,527.4,527.4,527.5,527.5,527.7z M504.9,505.6v2H519v-2H504.9z M504.9,510.9v2.1H519v-2.1H504.9z M515.9,492h-8.8
		c0.6,1.4,1.1,2.6,1.3,3.7h6.2C515.4,493.7,515.8,492.5,515.9,492z"/>
	<path class="st3" d="M585.5,491.1l-3.9,3.3c-1-1.7-2.7-3.6-5-5.6c-1.8,7.2-3.1,11.8-3.8,13.9c2,3.3,3,6.9,3,10.9
		c0,3.4-0.7,5.5-2,6.5c-0.7,0.5-1.5,0.8-2.6,1.1c-0.5,0.1-1.4,0.1-2.6,0.1c0-1.9-0.4-3.5-1.1-5c0.4,0,1,0,1.6,0
		c0.5,0,0.8-0.2,1.1-0.4c0.4-0.6,0.6-1.6,0.6-3.2c0-3.5-1-6.6-2.8-9.5c0.9-3.4,1.7-7.1,2.4-11.4h-3.1v39.3h-5.1v-44.5h9.7l0.8-0.2
		l3.5,2l3.5-3C582.4,487.4,584.3,489.3,585.5,491.1z M583.8,507.6v12.5c1.6,3.2,4.3,4.9,8.1,5.1c5.3,0.2,10.5,0.1,15.8-0.3
		c-0.7,1.7-1.3,3.4-1.5,5.1c-4.9,0.3-9.8,0.3-14.5,0.1c-4.4-0.2-7.7-2-9.9-5.3c-0.1-0.1-0.2-0.2-0.2-0.3c-1.4,1.7-3.3,3.7-5.7,6.2
		l-2.6-5.1c2.3-1.9,4.2-3.5,5.7-5v-8.2h-2.8v-4.7H583.8z M574.9,499.3l3.4-3.1c3.2,2.2,5.4,4.1,6.6,5.8l-3.6,3.5
		c-1.3-1.8-3.3-3.8-6.1-5.9C575.2,499.5,575,499.4,574.9,499.3z M588.4,499.2v-2.5c-0.6,0.9-1.4,1.7-2.2,2.6
		c-1.3-1.3-2.6-2.4-3.8-3.2c2.5-2.2,4.3-5.1,5.4-8.7l4.2,1.1v-2.6h9.1c1.2,3.3,3,6.1,5.4,8.4c0.3,0.3,0.6,0.6,0.9,0.8
		c-1.3,0.9-2.4,2-3.4,3.4c0,0.1-0.1,0.1-0.1,0.1c-0.5-0.5-1.2-1.4-2.3-2.7v3.2H597c-0.6,0.7-1.4,1.6-2.2,2.4c1.2,1.1,2.2,2.3,3,3.8
		c2.2-2,4-3.7,5.1-5.2l3.5,3c-1.5,1.4-3.4,3-5.6,4.7c3.3,3,5.5,5.5,6.7,7.5l-3,3.5c-0.8-1.4-2.2-3.2-4.2-5.4
		c0.3,3.6-0.1,6.3-1.4,8.1c-0.1,0.2-0.2,0.3-0.3,0.4c-1,1.3-2.5,2-4.4,2.1c0,0-0.1,0-0.1,0c-1,0.1-1.9,0-2.8,0
		c-0.2-1.9-0.5-3.4-1.1-4.4c1,0.1,1.9,0.2,2.8,0.2c0.9,0,1.6-0.4,2-1c0.5-0.7,0.8-2,0.9-3.8c-2.9,2.7-6,4.9-9.2,6.6
		c-0.5-1.3-1.2-2.5-2.2-3.7c3.5-1.5,6.8-3.6,9.8-6.4c0.4-0.4,0.7-0.7,1-1c-0.2-0.7-0.4-1.3-0.6-1.8c-2.6,2.4-5.3,4.2-7.9,5.6
		c-0.7-1.4-1.4-2.6-2.4-3.6c3.2-1.3,6-3.1,8.5-5.3c-0.3-0.4-0.6-0.9-1-1.3c-1.9,1.4-3.5,2.5-4.8,3.2c-1.4-1.6-2.4-2.6-3-3.1
		c3.1-1.5,5.6-3.2,7.7-5.1H588.4z M598.2,490.4H592V490c-0.7,1.8-1.4,3.4-2.4,4.9h11.2C599.7,493.2,598.8,491.7,598.2,490.4z"/>
	<path class="st3" d="M652.5,507.1v12.5c1.8,2.9,5.2,4.6,10.3,4.9c0.3,0,0.6,0,0.8,0c6.7,0.3,14,0.2,21.7-0.3c0.8,0,1.5-0.1,2.1-0.1
		c-0.9,2-1.5,4-1.9,5.9c-7.8,0.4-15.2,0.4-22.1,0.1c-5.2-0.3-9.1-1.5-11.7-3.7c-0.7-0.6-1.3-1.2-1.8-1.9c-2.6,2.3-5,4.3-7.1,6.1
		l-2.8-6.1c2.4-1.5,4.7-3,6.6-4.6v-7.5h-5.6v-5.5H652.5z M652.9,500.1l-4.1,4.2c-1.6-1.8-4-3.6-7.3-5.5c-0.3-0.2-0.5-0.3-0.7-0.4
		l3.9-3.8C648.5,496.6,651.2,498.4,652.9,500.1z M654.5,490.2l-4.3,4.1c-1.4-1.8-3.6-3.6-6.6-5.5c-0.2-0.1-0.4-0.3-0.6-0.4l4-3.7
		C650.3,486.6,652.9,488.5,654.5,490.2z M658.4,497.7h7.8c0-0.2,0.1-0.6,0.2-1.1c0.1-0.7,0.2-1.2,0.3-1.5h-11.8v-4.8h6.5
		c-0.6-1.3-1.4-2.6-2.4-4l4.6-1.9c1.6,1.8,2.8,3.6,3.4,5.3l-1.2,0.5h8.7l-1-0.2c1.3-2.1,2.2-3.9,2.8-5.6l6,1.2
		c-0.2,0.4-1.2,1.9-3,4.6h7.3v4.8H673c-0.2,0.6-0.6,1.5-1.2,2.6h10.8v24.5h-5.9V521H664v1.1h-5.6V497.7z M676.7,504.3V502H664v2.2
		H676.7z M664,508.2v2.3h12.6v-2.3H664z M664,516.7h12.6v-2.4H664V516.7z"/>
</g>
</svg>
