<svg version="1.1"
	 xmlns="http://www.w3.org/2000/svg" xmlns:xlink="http://www.w3.org/1999/xlink" 
	 x="0px" y="0px" width="684.4px" height="531.4px" viewBox="0 0 684.4 531.4" style="enable-background:new 0 0 684.4 531.4;"
	 xml:space="preserve">
<style type="text/css">
	.st0{fill:#353738;}
	.st1{fill:#6A8379;}
	.st2{fill:#984D3C;}
	.st3{fill:#BEBEBE;}
</style>
<g>
	<g>
		<path class="st0" d="M273.5,212.7c11.7,0,19.9-1.4,24.3-4.2c4.5-2.8,6.7-9.3,6.7-19.5v-35.2c0-5.6-1.7-10.2-5.2-13.8
			c-3.4-3.6-8.1-5.4-14-5.4c-6.9,0-11.8,2.2-14.7,6.5c-2.9,4.3-4.4,8.6-4.4,12.6v22.2h-39.1v-22.6c0-7.9,1.5-15.4,4.6-22.6
			c3.1-7.1,7.3-13.3,12.6-18.4c5.4-5.1,11.6-9.2,18.8-12.3c7.1-3.1,14.8-4.6,23-4.6c10.7,0,19.6,2.1,26.6,6.3
			c7,4.2,12.3,8.5,15.9,12.8c2.5,3.1,4.8,6.1,6.7,9.2c1.9,3.1,3.5,6.8,4.8,11.1c2.3,8.4,3.4,20.9,3.4,37.5c0,9.4-0.2,17.1-0.6,23
			c-0.4,5.9-1.3,10.7-2.9,14.6c-1.8,4.1-4.3,7.5-7.5,10.3c-3.2,2.8-7.6,5.9-13.2,9.2c6.1,3.8,10.8,7.4,14,10.7
			c3.2,3.3,5.6,7.2,7.1,11.5c1.5,4.6,2.4,10,2.7,16.3c0.3,6.3,0.4,14.2,0.4,23.9c0,8.9-0.2,16.3-0.6,22.2c-0.4,5.9-1,10.7-1.7,14.6
			c-0.8,4.1-1.8,7.5-3.1,10.3c-1.3,2.8-2.9,5.7-5,8.8c-4.9,7.2-11,13.1-18.6,17.8c-7.5,4.7-17.4,7.1-29.7,7.1
			c-6.1,0-12.6-1-19.5-3.1c-6.9-2-13.2-5.4-18.8-10c-5.6-4.6-10.3-10.6-14-18c-3.7-7.4-5.6-16.5-5.6-27.2v-22.2h39.1v20.3
			c0,6.1,1.7,11.2,5.2,15.1c3.4,4,8.1,5.9,14,5.9c5.9,0,10.5-2,14-5.9c3.4-4,5.2-9.3,5.2-15.9v-39.1c0-10.7-2-17.7-6.1-21.1
			c-2.3-2-5.4-3.3-9.4-3.8c-4-0.5-9.1-0.8-15.5-0.8V212.7z"/>
		<path class="st1" d="M285,374.3c-6.2,0-13-1.1-20-3.1c-7.1-2.1-13.5-5.5-19.3-10.2c-5.8-4.7-10.6-10.9-14.4-18.5
			c-3.8-7.6-5.7-16.9-5.7-27.9v-23.7h42.1v21.8c0,5.7,1.6,10.5,4.8,14.1c3.2,3.6,7.4,5.4,12.8,5.4s9.7-1.8,12.8-5.4
			c3.2-3.7,4.8-8.7,4.8-14.9v-39.1c0-10.2-1.9-16.9-5.6-19.9c-2.1-1.9-5-3-8.6-3.5c-3.9-0.5-9-0.8-15.3-0.8H272v-37.5h1.5
			c11.4,0,19.3-1.3,23.5-4c4-2.5,6-8.6,6-18.3v-35.2c0-5.3-1.6-9.4-4.8-12.7c-3.2-3.3-7.4-4.9-12.9-4.9c-6.4,0-10.8,1.9-13.5,5.9
			c-2.8,4.1-4.1,8-4.1,11.8v23.7h-42.1v-24.1c0-8.1,1.6-15.9,4.7-23.2c3.1-7.3,7.5-13.7,13-18.9c5.5-5.2,11.9-9.4,19.2-12.5
			c7.3-3.1,15.2-4.7,23.6-4.7c10.9,0,20.2,2.2,27.4,6.5c7.1,4.3,12.6,8.7,16.3,13.2c2.6,3.1,4.9,6.3,6.8,9.4c2,3.2,3.6,7,5,11.5
			c2.3,8.5,3.5,21.3,3.5,38c0,9.4-0.2,17.2-0.6,23.1c-0.4,6-1.4,11.1-3,15c-1.9,4.3-4.5,8-7.9,10.9c-2.8,2.5-6.7,5.2-11.4,8.1
			c5.2,3.4,9.3,6.6,12.2,9.6c3.3,3.5,5.8,7.5,7.4,12c1.6,4.7,2.5,10.3,2.8,16.7c0.3,6.4,0.4,14.4,0.4,24c0,8.9-0.2,16.4-0.6,22.3
			c-0.4,5.9-1,10.9-1.8,14.8c-0.8,4.2-1.8,7.8-3.2,10.7c-1.3,2.9-3,5.9-5.1,9c-5,7.3-11.4,13.4-19,18.2
			C307.7,371.8,297.5,374.3,285,374.3z M228.6,293.8v20.7c0,10.4,1.8,19.4,5.4,26.5c3.6,7.2,8.2,13.1,13.6,17.5
			c5.4,4.4,11.6,7.7,18.2,9.7c6.7,2,13.2,3,19.1,3c11.9,0,21.6-2.3,28.9-6.9c7.3-4.6,13.4-10.4,18.1-17.4c2-3,3.6-5.9,4.9-8.6
			c1.2-2.7,2.2-6.1,3-10c0.8-3.8,1.3-8.6,1.7-14.4c0.4-5.8,0.6-13.3,0.6-22.1c0-9.5-0.1-17.6-0.4-23.9c-0.3-6.1-1.1-11.4-2.6-15.9
			c-1.4-4.1-3.7-7.8-6.7-10.9c-3.1-3.2-7.7-6.8-13.7-10.5l-2.1-1.3l2.1-1.3c5.5-3.3,9.9-6.3,13-9c3-2.6,5.4-6,7.1-9.8
			c1.4-3.6,2.4-8.4,2.8-14.1c0.4-5.8,0.6-13.5,0.6-22.9c0-16.4-1.1-28.9-3.4-37.1c-1.2-4.2-2.8-7.8-4.6-10.7c-1.9-3-4.1-6-6.6-9
			c-3.5-4.2-8.7-8.4-15.5-12.5c-6.8-4.1-15.5-6.1-25.8-6.1c-7.9,0-15.5,1.5-22.4,4.5c-6.9,3-13.1,7-18.3,12
			c-5.2,4.9-9.3,11-12.3,17.9c-3,6.9-4.5,14.3-4.5,22v21.1h36.1v-20.7c0-4.4,1.6-8.9,4.7-13.5c3.2-4.8,8.6-7.2,16-7.2
			c6.3,0,11.3,2,15.1,5.8c3.7,3.9,5.6,8.8,5.6,14.8v35.2c0,10.9-2.4,17.7-7.4,20.8c-4.6,2.9-12.3,4.3-23.6,4.4v31.5
			c5.7,0,10.5,0.3,14.2,0.8c4.2,0.6,7.7,2,10.2,4.2c4.4,3.6,6.6,10.9,6.6,22.2v39.1c0,7-1.9,12.7-5.5,16.9
			c-3.7,4.3-8.8,6.5-15.1,6.5s-11.4-2.2-15.1-6.5c-3.7-4.2-5.5-9.6-5.5-16.1v-18.8H228.6z"/>
	</g>
	<g>
		<path class="st0" d="M369.6,154.1c0-9.2,1.6-17.4,4.8-24.5c3.2-7.1,7.5-13.3,12.8-18.4c5.4-5.1,11.5-9,18.6-11.7
			c7-2.7,14.4-4,22-4c7.7,0,15,1.3,22,4c7,2.7,13.2,6.6,18.6,11.7c5.4,5.1,9.6,11.2,12.8,18.4c3.2,7.2,4.8,15.3,4.8,24.5v160.1
			c0,9.2-1.6,17.4-4.8,24.5c-3.2,7.2-7.5,13.3-12.8,18.4c-5.4,5.1-11.6,9-18.6,11.7c-7,2.7-14.4,4-22,4c-7.7,0-15-1.3-22-4
			c-7-2.7-13.2-6.6-18.6-11.7c-5.4-5.1-9.6-11.2-12.8-18.4c-3.2-7.1-4.8-15.3-4.8-24.5V154.1z M408.7,314.2c0,5.6,1.8,10.3,5.4,14
			c3.6,3.7,8.2,5.6,13.8,5.6c5.6,0,10.2-1.8,13.8-5.6c3.6-3.7,5.4-8.4,5.4-14V154.1c0-5.6-1.8-10.3-5.4-14
			c-3.6-3.7-8.2-5.6-13.8-5.6c-5.6,0-10.2,1.9-13.8,5.6c-3.6,3.7-5.4,8.4-5.4,14V314.2z"/>
		<path class="st1" d="M427.8,374.3c-7.8,0-15.4-1.4-22.6-4.1c-7.2-2.7-13.6-6.8-19.1-12c-5.5-5.2-9.9-11.6-13.2-18.9
			c-3.3-7.3-4.9-15.7-4.9-25.1V154.1c0-9.4,1.7-17.8,4.9-25.1c3.3-7.3,7.7-13.6,13.2-18.9c5.5-5.2,11.9-9.3,19.1-12
			c7.2-2.7,14.7-4.1,22.6-4.1c7.8,0,15.4,1.4,22.6,4.1c7.2,2.7,13.6,6.8,19.1,12c5.5,5.2,9.9,11.6,13.2,18.9
			c3.3,7.3,4.9,15.8,4.9,25.1v160.1c0,9.4-1.7,17.8-4.9,25.1c-3.3,7.3-7.7,13.7-13.2,18.9c-5.5,5.2-11.9,9.3-19.1,12
			C443.2,372.9,435.6,374.3,427.8,374.3z M427.8,97c-7.4,0-14.7,1.3-21.5,3.9c-6.8,2.6-12.9,6.4-18.1,11.4c-5.2,5-9.4,11-12.5,17.9
			c-3.1,6.9-4.7,15-4.7,23.9v160.1c0,9,1.6,17,4.7,23.9c3.1,6.9,7.3,13,12.5,17.9c5.2,4.9,11.3,8.8,18.1,11.4
			c6.8,2.6,14,3.9,21.5,3.9c7.4,0,14.7-1.3,21.5-3.9c6.8-2.6,12.9-6.4,18.1-11.4c5.2-4.9,9.4-11,12.5-17.9c3.1-6.9,4.7-15,4.7-23.9
			V154.1c0-8.9-1.6-17-4.7-23.9c-3.1-6.9-7.3-13-12.5-17.9c-5.2-4.9-11.3-8.8-18.1-11.4C442.5,98.3,435.3,97,427.8,97z M427.8,335.2
			c-6,0-11-2-14.9-6c-3.8-4-5.8-9-5.8-15V154.1c0-6,1.9-11,5.8-15c3.9-4,8.9-6,14.9-6c6,0,11,2,14.9,6c3.8,4,5.8,9,5.8,15v160.1
			c0,6-1.9,11-5.8,15C438.8,333.2,433.8,335.2,427.8,335.2z M427.8,136c-5.2,0-9.4,1.7-12.7,5.1c-3.3,3.4-4.9,7.7-4.9,12.9v160.1
			c0,5.3,1.6,9.5,4.9,12.9c3.3,3.4,7.5,5.1,12.7,5.1c5.2,0,9.4-1.7,12.7-5.1c3.3-3.4,4.9-7.7,4.9-12.9V154.1c0-5.3-1.6-9.5-4.9-12.9
			C437.2,137.7,433.1,136,427.8,136z"/>
	</g>
</g>
<g>
	<path class="st2" d="M202.8,139.4h-0.9l-1.2-2.4l0.7-0.8c6.6-7.4,12.8-15.5,18.6-23.9c5.8-8.4,10.5-17.4,14.1-26.6
		c0.3-0.8,0.8-2.5,1.5-5.1c0.7-2.7,1.5-5.4,2.3-8.3c0.9-2.9,1.8-5.5,2.7-7.7c0.8-2,2-4.2,4-4.2c0.5,0,1.4,0.1,5.1,1.6
		c2.5,1,5.2,2.2,7.9,3.5c2.8,1.3,5.4,2.6,7.9,3.8c3.4,1.7,4.3,2.3,4.7,2.7l1,0.8l-0.5,1.1c-0.4,0.7-1.1,1.4-2.4,2.2
		c-1.1,0.7-1.7,1.2-1.9,1.4c-1.8,1.6-3.2,3.3-4.4,5.1c-1.2,2-2.4,4-3.4,6c-1.1,2.1-2.1,4.2-3.1,6.2c-1.1,2.2-2.3,4.3-3.8,6.3
		c-1.2,1.7-3,3.9-5.2,6.5c-2.3,2.5-4.8,5.2-7.6,8c-2.8,2.8-5.9,5.6-9.1,8.4c-3.2,2.7-6.5,5.3-9.6,7.6c-3.2,2.3-6.3,4.2-9.1,5.6
		C207.9,138.7,205.1,139.4,202.8,139.4z M244.7,63.5c-0.2,0.1-0.7,0.7-1.4,2.4c-0.9,2.1-1.8,4.6-2.6,7.4c-0.8,2.8-1.6,5.5-2.3,8.2
		c-0.7,2.7-1.2,4.5-1.6,5.4c-3.7,9.5-8.5,18.7-14.4,27.3c-5.3,7.7-11,15.1-16.9,22c1.2-0.3,2.6-0.8,4.1-1.6c2.7-1.3,5.7-3.1,8.7-5.3
		c3.1-2.2,6.2-4.7,9.4-7.4s6.2-5.5,8.9-8.2c2.8-2.8,5.3-5.4,7.5-7.9c2.2-2.4,3.9-4.5,5-6.2c1.4-1.9,2.5-3.8,3.5-5.8
		c1-2.1,2.1-4.2,3.2-6.3c1.1-2.1,2.3-4.2,3.5-6.2c1.3-2.1,2.9-4,4.9-5.7c0.4-0.5,1.2-1,2.4-1.8c0.1,0,0.1-0.1,0.2-0.1
		c-0.6-0.3-1.5-0.8-2.6-1.4c-2.4-1.2-5-2.5-7.7-3.8c-2.7-1.3-5.4-2.4-7.8-3.4C246,63.8,245,63.6,244.7,63.5z M335.7,138.2
		c-2,0-4-0.4-6-1c-2.1-0.7-3.9-2-5.3-3.7c-1-1.3-1.8-3-2.5-5c-0.6-1.8-1.2-3.5-1.8-4.9c-1.1-3-2.1-6.2-3.1-9.4c-1-3.1-2-6.2-3.2-9.2
		c-1.2-3-2.5-6-3.9-8.8c-1.4-2.8-3.1-5.6-4.9-8.2c-0.6-0.8-1.7-2.1-3.1-3.9c-1.4-1.8-2.9-3.6-4.5-5.5c-1.6-1.9-3-3.8-4.1-5.6
		c-1.3-2.1-1.9-3.6-1.9-4.7c0-1.3,0.8-2.8,3.1-2.8c3.6,0,7.6,0.9,11.7,2.7c4.1,1.8,8.1,4.1,12.1,7.1c4,2.9,7.8,6.3,11.4,10.1
		c3.6,3.8,6.9,7.7,9.7,11.8c2.8,4.1,5,8.2,6.7,12.2c1.7,4.1,2.6,8.1,2.6,11.7c0,1.9-0.2,3.9-0.7,5.8c-0.5,2-1.2,3.8-2.3,5.5
		c-1.1,1.7-2.4,3.1-4.1,4.1C340,137.6,338,138.2,335.7,138.2z M294.4,68.5c0.1,0.4,0.4,1.3,1.4,2.9c1.1,1.7,2.4,3.5,3.9,5.3
		c1.6,1.9,3.1,3.7,4.5,5.5c1.4,1.8,2.5,3.1,3.2,4c2,2.8,3.7,5.6,5.2,8.6c1.5,2.9,2.8,6,4,9.1c1.2,3.1,2.3,6.3,3.3,9.4
		c1,3.1,2,6.2,3,9.2c0.5,1.4,1.1,3.1,1.8,4.9c0.6,1.7,1.3,3.1,2,4.2c1,1.2,2.2,2.1,3.9,2.7c1.7,0.6,3.4,0.9,5.1,0.9
		c1.7,0,3.2-0.4,4.4-1.2c1.3-0.8,2.3-1.9,3.2-3.3c0.9-1.4,1.5-2.9,1.9-4.5c0.4-1.7,0.6-3.4,0.6-5.1c0-3.2-0.8-6.8-2.4-10.5
		c-1.6-3.9-3.8-7.8-6.5-11.7c-2.7-3.9-5.8-7.8-9.3-11.4c-3.5-3.6-7.2-6.9-11.1-9.7c-3.8-2.8-7.7-5.1-11.5-6.7
		C301.2,69.3,297.7,68.5,294.4,68.5C294.5,68.5,294.4,68.5,294.4,68.5z M346.8,42.7H205c-1.4,0-2.3-0.9-2.3-2.3
		c0-1.4,0.9-2.3,2.3-2.3h57.8c0,0,0.1,0,0.1,0c0,0,0-0.1,0-0.1V3.1c0-1.8,1-2.9,2.7-3c0.9-0.1,1.7-0.1,2.3-0.1c0.8,0,2.3,0,4.6,0.1
		c2.3,0.1,4.8,0.2,7.3,0.4c2.5,0.2,4.8,0.6,6.8,1.1c2.7,0.7,4,1.8,4,3.5c0,1.1-0.7,2.3-2.2,3.5c-0.5,0.4-1.1,1-1.1,1.6v27.4
		c0,0,0,0.1,0,0.1c0,0,0.1,0,0.1,0h27.4c0.3,0,1.2,0,2.3-1.6c1-1.5,2.1-3.1,3.1-4.9c1.1-1.8,2.1-3.6,3.2-5.1c1.2-1.9,2.5-2.9,4-3.3
		c0.9-0.3,1.8,0.2,3.3,1.2c1.1,0.8,2.5,1.7,4,2.9c1.5,1.1,3.1,2.4,4.8,3.8c1.7,1.4,3.2,2.7,4.7,3.8c1.5,1.2,2.7,2.3,3.7,3.2
		c1.5,1.5,1.8,1.9,1.8,2.6C349.6,41.4,348.8,42.7,346.8,42.7z M205,39.7l0,1.5L205,39.7C205,39.7,205,39.7,205,39.7z M346.8,41
		L346.8,41L346.8,41z M317.6,39.7h28c-0.9-0.9-2-1.9-3.4-3c-1.5-1.2-3-2.5-4.7-3.9c-1.7-1.4-3.2-2.6-4.7-3.7c-1.5-1.1-2.8-2-3.9-2.8
		c-0.6-0.4-0.9-0.6-1.1-0.7c-0.6,0.2-1.3,0.9-1.9,1.9c-1,1.5-2,3.2-3.1,5c-1.1,1.8-2.2,3.6-3.3,5.1
		C318.9,38.6,318.3,39.3,317.6,39.7z M265.5,39.7h19.6c-0.5-0.5-0.8-1.3-0.8-2.2V10.2c0-1.4,0.8-2.8,2.2-4c0.7-0.5,0.9-0.9,1.1-1.1
		c-0.2-0.1-0.7-0.4-1.7-0.6c-1.8-0.5-4-0.8-6.4-1c-2.4-0.2-4.8-0.3-7.1-0.4C270.2,3,268.7,3,267.9,3c-0.6,0-1.3,0-2,0.1c0,0,0,0,0,0
		V38C265.9,38.7,265.8,39.3,265.5,39.7z M287.3,37.8L287.3,37.8L287.3,37.8z"/>
	<path class="st2" d="M373.3,144.7c-0.4,0-0.8,0-1.3-0.1c-1.2-0.2-2-1.1-2-2.4c0-14.4-0.1-29.1-0.3-43.5
		c-0.2-14.2-0.4-28.9-0.5-43.5l-0.2-26.7c0-2.4-0.1-4.9-0.2-7.3c-0.1-2.5-0.1-5,0.2-7.5c0-0.4,0.1-0.8,0.2-1.2
		c0.5-1.4,1.6-1.5,1.9-1.5c1,0,2.4,0.4,4.7,1.4c2,0.9,4.2,1.8,6.4,2.9c2.2,1.1,4.4,2,6.3,2.9c2.4,1.1,3.4,1.2,3.7,1.2h85.6l0.6-0.2
		c0.4-0.4,0.9-1,1.7-1.8c1-1,2-2.1,3-3.1c1-1,2-2,3-2.9c1.4-1.2,2.2-1.7,2.9-1.7c0.6,0,1.2,0.1,3.9,2.1c1.7,1.2,3.6,2.6,5.6,4.2
		c2,1.6,3.8,3.1,5.4,4.5c2.3,2,2.9,2.7,3.1,3.2l0.1,0.1l0.4,1.1v0.3c0,1-0.5,1.9-1.4,2.5c-0.5,0.3-1.1,0.7-1.7,1
		c-0.5,0.3-1,0.6-1.4,1c-0.2,0.2-0.3,0.4-0.3,0.7v105.2c0,1.5-1,2.7-2.9,3.7c-1.5,0.7-3.2,1.4-5,1.9c-1.8,0.5-3.6,0.9-5.4,1.1
		c-1.8,0.2-3,0.3-3.7,0.3c-1.1,0-1.9,0-2.4-0.1c-1.3-0.2-2.1-1.4-2.6-2.5l-0.1-0.2c-0.1-0.3-0.2-0.9-0.5-2.6
		c-0.2-1.3-0.3-2.7-0.4-4.2c-0.1-1.5-0.2-2.9-0.2-4.3c0-1-0.1-1.8-0.1-2.3l-1.3,1.3l-1.7,0.7h-80.6c-0.3,0-0.7-0.1-1.1-0.3
		c0,0-0.1,0-0.1-0.1h-0.5l-0.4-0.4c-0.1-0.1-0.1-0.1-0.2-0.2c-0.2,6.1-2.1,10.5-5.7,13.1C384.2,143.4,379.3,144.7,373.3,144.7z
		 M373.1,141.7c0.1,0,0.2,0,0.3,0c5.3,0,9.6-1.2,12.7-3.5c3-2.2,4.5-6.2,4.5-11.7c0-0.2-0.1-0.5-0.3-0.8c-0.6-0.8-0.8-1.6-0.8-2.5
		V25.6c0-1.9,1.2-3.1,3.1-3.1h14c1.5,0,3.1,0.9,3.1,3.4c0,7.9-0.1,16-0.2,23.9c-0.2,8.1-1.2,16.1-3,23.9c-0.5,1.7-1.2,3.7-2.2,6
		c-0.9,2.2-2,4.5-3,6.8c-1,2.2-1.9,4.4-2.6,6.4c-0.6,1.8-0.9,3.3-0.9,4.4c0.5-0.1,1.1-0.3,1.6-0.7c1-0.7,1.8-1.3,2.5-1.9
		c3.9-3.6,7.3-7.5,10.1-11.6c2.8-4.1,5.1-8.4,6.8-12.8c1.8-4.5,3.2-9.2,4.1-14c0.9-4.9,1.6-10.1,2.1-15.5c0.1-2.1,0.1-4.6,0.1-7.6
		c-0.1-3.1,0.3-5.8,1-8c0.2-0.8,0.9-2,2.8-2.5c0.6-0.2,1.2-0.3,1.8-0.4h-38.2c-1.1,0-2.6-0.4-4.9-1.4c-2-0.9-4.1-1.8-6.4-2.9
		c-2.2-1.1-4.3-2-6.3-2.9c-1.3-0.6-2.1-0.9-2.7-1c-0.2,2.3-0.2,4.6-0.1,7c0.1,2.5,0.2,5,0.2,7.5l0.2,26.7
		c0.1,14.6,0.3,29.3,0.5,43.5C372.9,113,373.1,127.5,373.1,141.7z M484,139.6c0.3,0,0.9,0,1.8,0c0.6,0,1.7-0.1,3.4-0.3
		c1.7-0.2,3.3-0.5,5-1c1.7-0.5,3.2-1,4.5-1.7c1-0.5,1.3-0.9,1.3-1V30.5c0-1.2,0.5-2.2,1.3-3c0.6-0.6,1.3-1,2-1.4
		c0.5-0.3,1-0.6,1.5-0.9l-0.1-0.2c-0.1-0.1-0.5-0.7-2.4-2.3c-1.6-1.4-3.4-2.8-5.3-4.4c-2-1.5-3.8-2.9-5.5-4.1
		c-1.2-0.8-1.8-1.2-2.2-1.4c-0.2,0.1-0.5,0.4-1,0.8c-1,0.9-1.9,1.8-2.9,2.8c-1,1-2,2-2.9,3c-1,1-1.6,1.7-2,2l-0.2,0.2l-1.7,0.7H435
		c0.2,0,0.5,0,0.7,0.1c1,0.1,1.8,0.2,2.4,0.2c1.9,0,3.1,1.2,3.1,3.1v59.5c0,1.4,0.4,2.4,1.1,3.2c0.9,0.9,2,1.5,3.3,2
		c1.4,0.5,2.9,0.8,4.5,0.9c1.7,0.1,3.2,0.2,4.5,0.2c2,0,4-0.2,5.9-0.7c2.1-0.5,4.1-1,6.1-1.5c2-0.5,4.1-1.1,6.1-1.5
		c2.1-0.5,4.3-0.8,6.5-0.8c1.6,0,2.6,0.2,3.2,0.7c0.7,0.6,1,1.6,1,3.3c0,5.9-0.2,11.8-0.6,17.6c-0.4,5.7-0.6,11.6-0.6,17.4
		c0,0.4,0,1.3,0.1,2.6c0.1,1.3,0.1,2.7,0.2,4.2c0.1,1.4,0.2,2.8,0.4,4c0.2,1.3,0.3,1.8,0.3,2C483.7,139.3,483.9,139.5,484,139.6z
		 M394.9,124.5h82.8l1.7,1.7c0-0.1,0-0.2,0-0.2c0-5.9,0.2-11.9,0.6-17.6c0.4-5.7,0.6-11.6,0.6-17.4c0-0.5,0-0.8-0.1-1
		c-0.2,0-0.6-0.1-1.2-0.1c-2,0-4,0.2-5.8,0.7c-2,0.5-4,1-6,1.5c-2,0.5-4,1-6.1,1.5c-2.1,0.5-4.4,0.8-6.6,0.8c-1.3,0-2.9-0.1-4.7-0.2
		c-1.9-0.1-3.7-0.5-5.3-1.1c-1.7-0.6-3.2-1.5-4.4-2.7c-1.4-1.3-2.1-3.1-2.1-5.3V25.6c0,0,0-0.1,0-0.1c0,0-0.1,0-0.1,0
		c-0.7,0-1.6-0.1-2.7-0.2c-2-0.2-4.2-0.3-5.9,0.2c-0.6,0.2-0.7,0.4-0.7,0.5c-0.6,1.9-0.9,4.3-0.8,7.1c0.1,3,0,5.7-0.1,7.8
		c-0.4,5.5-1.1,10.9-2.1,15.9c-1,5.1-2.4,10-4.3,14.6c-1.9,4.6-4.3,9.1-7.2,13.4c-2.9,4.3-6.5,8.4-10.6,12.2
		c-0.8,0.7-1.8,1.4-2.8,2.1c-1.3,0.9-2.6,1.3-4,1.3c-0.4,0-1.3-0.1-1.9-1.3c-0.3-0.5-0.4-1-0.4-1.4c-0.1-1.6,0.2-3.5,1.1-5.8
		c0.8-2.1,1.7-4.4,2.7-6.6c1-2.3,2-4.5,3-6.7c0.9-2.2,1.6-4.1,2-5.6c1.8-7.5,2.8-15.4,2.9-23.2c0.2-7.9,0.2-16,0.2-23.9
		c0-0.2,0-0.4,0-0.4c0,0,0,0-0.1,0h-14c0,0-0.1,0-0.1,0c0,0,0,0.1,0,0.1v97.7c0,0.2,0.1,0.5,0.3,0.7c0.3,0.4,0.5,0.8,0.6,1.2
		l0.1-0.1C393.6,124.9,394.1,124.5,394.9,124.5z M438.3,25.4L438.3,25.4L438.3,25.4z M478.6,77.2c-2.6,0-3.8-1.3-4.4-2.3
		c-0.7-1.2-1.2-2.4-1.4-3.8c-0.2-1-0.4-1.9-0.5-2.8c-0.4,0.9-0.8,1.9-1.3,3.1c-0.6,1.4-1.5,2.6-2.4,3.7c-1.2,1.3-2.8,2-5,2
		c-1.4,0-2.9-0.4-4.5-1.2c-2.4-1.2-2.9-3.1-2.9-4.5V25.6c0-1.9,1.2-3.1,3.1-3.1h20.3c1.9,0,3.1,1.2,3.1,3.1v47.8
		c0,0.5,0,2.2-1.2,3.1C480.6,76.9,479.7,77.2,478.6,77.2z M472.6,64.4c0.6,0,2.2,0.3,2.5,2.9c0.1,1,0.3,2,0.5,3.2
		c0.2,1,0.6,2,1.1,2.9c0.2,0.4,0.6,0.8,1.8,0.8c0.5,0,0.7,0,0.9-0.1c0-0.1,0.1-0.3,0.1-0.7V25.6c0,0,0-0.1,0-0.1c0,0-0.1,0-0.1,0
		h-20.3c0,0-0.1,0-0.1,0c0,0,0,0.1,0,0.1v45.7c0,0.6,0.1,1.2,1.3,1.8c1.2,0.6,2.2,0.9,3.2,0.9c1.3,0,2.2-0.3,2.7-1
		c0.8-0.9,1.4-1.9,1.9-3c0.6-1.2,1-2.3,1.4-3.3C470.3,64.7,471.8,64.4,472.6,64.4z M472.6,67.4L472.6,67.4
		C472.6,67.4,472.6,67.4,472.6,67.4C472.6,67.4,472.6,67.4,472.6,67.4z M459,25.4L459,25.4L459,25.4z"/>
</g>
<g>
	<path class="st2" d="M169.2,409c-0.9,0-2.1-0.5-2.4-2.1c-0.2-0.9,0.1-1.6,0.4-1.9c0.3-0.4,0.9-0.8,2-0.8h74.4
		c0.2-0.1,0.4-0.5,0.9-1c0.8-1.1,1.7-2.3,2.7-3.6c1-1.4,1.9-2.6,2.8-3.7c1.3-1.6,2.1-2.2,3-2.2c0.7,0,1.5,0.3,3.6,1.8
		c1.4,1,3,2.2,4.6,3.5c1.6,1.3,3,2.6,4.3,3.7c1.8,1.7,2.4,2.4,2.4,3.3c0,1.1-0.6,1.9-1.6,2.1c-0.4,0.1-0.8,0.2-1.2,0.2
		c-4.4,0-8.8,0-13.1,0.1c-4.3,0-8.7,0.1-13.1,0.2c-9.6,0.1-19.3,0.2-28.9,0.3c-9.5,0-19.1,0.1-28.8,0.1c-1.9,0-3.9,0-5.9,0.1
		C173.3,409,171.3,409,169.2,409z M265,406.5L265,406.5L265,406.5z M253.2,396.9c-0.2,0.2-0.5,0.5-0.9,1c-0.9,1-1.8,2.2-2.7,3.5
		c-1,1.3-1.9,2.6-2.8,3.7c-0.1,0.1-0.2,0.3-0.3,0.4c1.8,0,3.6,0,5.4-0.1c3.9,0,7.9,0,11.9-0.1c-0.1-0.1-0.2-0.2-0.3-0.3
		c-1.2-1.1-2.6-2.3-4.2-3.6c-1.5-1.3-3-2.4-4.4-3.4C254,397.3,253.5,397,253.2,396.9z M243.4,404.3
		C243.4,404.3,243.4,404.3,243.4,404.3S243.4,404.3,243.4,404.3z M252.4,369.8h-70.7c-1.2,0-2-0.9-2-2s0.9-2,2-2H231
		c0.1-0.1,0.4-0.4,0.8-0.9c0.7-0.9,1.6-1.9,2.5-3.1c0.9-1.2,1.7-2.3,2.5-3.4c0.8-1.1,1.2-1.8,1.4-2.1l0.3-0.4l1.5-0.6l0.5,0.2
		c0.4,0.1,1.2,0.5,3.2,2c1.4,1.1,2.9,2.2,4.5,3.5c1.5,1.3,3,2.5,4.2,3.6c1.9,1.8,2.4,2.3,2.4,3.1c0,0.9-0.5,1.6-1.4,1.9
		C253,369.7,252.7,369.8,252.4,369.8z M252.4,366.8L252.4,366.8C252.4,366.8,252.4,366.8,252.4,366.8
		C252.4,366.8,252.4,366.8,252.4,366.8z M234.1,366.8h16.2c-1.2-1.1-2.6-2.3-4.1-3.5c-1.5-1.2-3-2.4-4.4-3.4c-0.8-0.6-1.3-1-1.7-1.2
		c-0.3,0.4-0.6,0.9-1,1.5c-0.8,1.1-1.6,2.3-2.5,3.5C235.7,364.8,234.8,365.9,234.1,366.8z M252.4,366.7
		C252.4,366.7,252.4,366.7,252.4,366.7C252.4,366.7,252.4,366.7,252.4,366.7z M260.6,334.8h-85.9c-0.4,0-1.7-0.1-2.2-2
		c-0.2-0.9,0.1-1.6,0.3-1.9c0.3-0.4,0.9-0.8,2-0.8h63.3c0.1-0.1,0.4-0.4,0.8-0.9c0.8-0.9,1.6-2,2.5-3.2c0.9-1.2,1.7-2.4,2.6-3.5
		c0.9-1.2,1.5-1.9,1.9-2.4l0.4-0.4h1.4l0.3,0.1c0.7,0.3,1.8,0.9,3.3,1.9c1.5,0.9,3,2,4.6,3.1c1.6,1.1,3.1,2.3,4.3,3.4
		c1.5,1.5,2.2,2.6,2.2,3.7c0,0.7-0.4,1.2-0.7,1.6c-0.3,0.3-0.5,0.6-0.7,0.7L260.6,334.8z M240.6,331.8h18.7
		c-0.2-0.2-0.5-0.7-1.2-1.3c-1.1-1-2.4-2.1-4-3.2c-1.5-1.1-3-2.1-4.5-3c-1.1-0.7-1.8-1.1-2.3-1.4c-0.3,0.3-0.6,0.8-1.1,1.4
		c-0.8,1.1-1.7,2.3-2.6,3.5c-0.9,1.2-1.8,2.3-2.6,3.3C241,331.3,240.8,331.6,240.6,331.8z"/>
	<path class="st2" d="M338.4,419.2c-1.5,0-2.6-1-2.6-2.6v-54.9l-1.9,0.9h-36.8c-0.3,0-0.6-0.1-0.9-0.2h-0.4l-0.4-0.4
		c-0.2-0.1-0.3-0.3-0.4-0.5l-0.9-0.9l1-1c0.2-0.2,0.7-0.5,1.4-0.5h38c0.7,0,1.1,0.3,1.4,0.5l0,0v-39.4c0-1.5,1-2.5,2.6-2.5
		c0.9,0,1.9,0.1,2.8,0.2c0.8,0.1,1.6,0.3,2.4,0.4c2.2,0.3,4.4,0.5,6.6,0.6c2.3,0.1,4.7,0.3,7,0.7l0.6,0.1l1.3,1.7l-1.1,1.8l-0.4,0.2
		c-0.1,0.1-0.4,0.2-0.8,0.4c-0.4,0.2-0.9,0.5-1.3,0.8c-0.4,0.2-0.7,0.5-1.1,0.7v17c0,4.3,0,9.1-0.1,14.2l0,2.2
		c0.4-0.2,0.9-0.2,1.1-0.2h14.6c0.7,0,1.5-0.8,2-1.4c1-1.3,1.9-2.6,2.8-4.1c0.9-1.5,1.7-2.9,2.4-4.2c0.7-1.3,1.7-2.8,3.1-2.8
		c0.6,0,1.2,0.3,2.2,1.1c0.6,0.5,1.3,1.1,2,1.7c0.7,0.6,1.4,1.2,2,1.8c0.6,0.6,1,1,1.2,1.2c0.3,0.2,0.8,0.7,1.6,1.3
		c0.8,0.7,1.6,1.4,2.4,2.1c0.9,0.7,1.7,1.4,2.4,2.1c0.9,0.8,1.5,1.5,1.6,2.2c0.1,0.9-0.2,1.7-0.8,2.3c-0.6,0.5-1.3,0.7-2.1,0.7
		h-36.2c-0.3,0-0.7-0.1-1.2-0.3c-0.4-0.2-0.7-0.3-1.1-0.5c0,0-0.1,0-0.1-0.1l-0.2,25.5c0,4.9-0.1,9.3-0.2,13.1
		c-0.1,3.8-0.1,6.9-0.2,9.3c-0.1,3.9-0.2,4.1-0.4,4.4l-0.1,0.1c-0.7,1.1-1.7,2-3.1,2.7c-1.2,0.6-2.6,1-4.1,1.4
		c-1.4,0.3-2.9,0.6-4.4,0.7C340.5,419.1,339.3,419.2,338.4,419.2z M338.8,320.7v95.5c0.8,0,1.7-0.1,2.8-0.2c1.3-0.1,2.7-0.4,4-0.7
		c1.3-0.3,2.5-0.7,3.5-1.2c0.8-0.4,1.3-0.8,1.7-1.3c0-0.3,0.1-1.2,0.1-3.3c0.1-2.4,0.1-5.5,0.2-9.3c0.1-3.7,0.1-8.1,0.2-13l0.2-30.7
		c0-5.2,0.1-9.9,0.1-14.2v-17.6c0-0.8,0.6-1.3,1.1-1.7c0.4-0.3,0.7-0.6,1.2-0.8c-1.2-0.1-2.5-0.2-3.7-0.2c-2.3-0.1-4.7-0.3-7-0.7
		c-0.8-0.1-1.6-0.3-2.4-0.4C340.1,320.8,339.5,320.7,338.8,320.7z M350.8,413.1L350.8,413.1L350.8,413.1z M393,360.3L393,360.3
		L393,360.3z M374,359.6h18.4c0,0,0,0-0.1-0.1c-0.7-0.6-1.5-1.3-2.3-2c-0.9-0.7-1.7-1.4-2.5-2.1c-0.8-0.7-1.3-1.1-1.5-1.3l-0.2-0.1
		c-0.2-0.2-0.6-0.6-1.3-1.2c-0.6-0.6-1.3-1.2-2-1.8c-0.7-0.6-1.3-1.1-1.9-1.6c-0.1-0.1-0.1-0.1-0.2-0.2c-0.1,0.2-0.3,0.5-0.6,0.9
		c-0.7,1.3-1.5,2.8-2.4,4.3c-0.9,1.6-1.9,3.1-3,4.5C374.3,359.2,374.2,359.4,374,359.6z"/>
	<path class="st2" d="M476.1,420c-1.5,0-2.6-1-2.6-2.6v-25.7l-0.1,0.2c-0.4,0.5-0.9,0.9-1.8,1.1c-0.6,0.2-1.2,0.3-1.6,0.3h-44.8
		l-1.4-0.6l-0.9-1.3l0.8-1.9l0.7-0.2c0.3-0.1,0.7-0.2,3.1-0.2c1.5,0,3.2-0.1,5.1-0.1h8.2l0-30.6c0-1,0.2-1.9,0.5-2.5
		c0.5-0.9,1.5-1.4,3-1.4c0.7,0,1.4,0.1,2.1,0.4c3.7,1.4,7.3,2.6,10.6,3.5c3.2,0.9,6.9,1.4,10.8,1.4c0.1,0,0.4,0,0.9,0
		c1.1-0.1,2.2-0.1,3.1,0c1.1,0.1,1.6,0.7,1.8,1.2v-22.3c-0.5,0-1.3,0-2.3,0c-2.7,0.1-5.7,0.1-8.1,0c-1.7-0.1-2.4-0.2-2.8-0.4
		l-1.3-0.7c-0.1,0.3-0.3,0.6-0.6,0.8l-13.1,13c-0.7,0.7-1.6,1.4-2.6,1.9c-0.8,0.4-1.5,0.9-2.2,1.4c-2.2,1.7-4.4,3.4-6.4,5.2
		c-2.2,1.9-4.7,3.4-7.4,4.6l-0.7,0.3l-1.9-1.3l0.3-1.1c0.1-0.4,0.4-1.2,1.7-3.3c0.9-1.4,1.8-3,2.9-4.6c1-1.6,2.1-3.2,3.1-4.8
		c1-1.5,1.7-2.6,2.1-3.3c1.8-3.1,3.5-6.3,5-9.5c1.5-3.2,3-6.5,4.4-9.8c0.5-1.1,0.9-2.2,1.3-3.3c0.4-1.1,0.8-2.2,1.2-3.3
		c0.1-0.5,0.3-1,0.5-1.6c0.2-0.6,0.4-1.1,0.7-1.6l0.1-0.2c0.6-0.8,1.5-1.3,2.5-1.3c0.5,0,1.4,0.1,4.1,1c1.9,0.6,3.8,1.3,5.8,2.2
		c2,0.8,3.8,1.7,5.4,2.4c2,1,3.2,1.9,3.2,3.2c0,1-0.7,1.7-2,2.8c-0.9,0.8-2,1.7-3,2.7c-1,1-2,2-3,3.2c-0.7,0.9-1.1,1.7-1.1,2.3v1
		c0,0.2,0,0.4,0,0.5l0.6-0.9c0.3-0.5,0.9-0.9,2-1.3c0.9-0.4,1.6-0.5,2.1-0.5h35.4l0.2-0.1c0.2-0.2,0.6-0.7,1.3-1.6
		c0.8-1,1.6-2.1,2.5-3.2c0.9-1.1,1.7-2.1,2.5-3c1.1-1.3,1.7-1.8,2.5-1.8c0.6,0,1.3,0.3,2.4,1c0.8,0.5,1.7,1.2,2.7,1.9
		c1,0.8,2.1,1.6,3.2,2.5c1.1,0.9,2.1,1.7,3,2.5c0.9,0.8,1.7,1.5,2.3,2.1c0.9,0.9,1.4,1.3,1.4,2.1c0,1.3-1,2-1.9,2h-29.4
		c0,7.3,0,14.6,0,21.8l1-1l0.7,0.1c1,0.1,1.9-0.1,2.8-0.6c1-0.6,2-1.3,2.9-2.2c0.9-0.9,1.8-1.9,2.5-3c0.8-1.1,1.4-2.2,2-3.2l0.3-0.5
		l1.4-0.6l0.4,0.1c0.5,0.1,1.2,0.4,3,1.8c1.3,1,2.6,2,4,3.1c1.4,1.1,2.7,2.2,3.9,3.3c1.7,1.5,2.1,2.1,2.4,2.5l0.4,0.7l-0.8,1.7
		l-1.5,0.7h-24.4l-1-1c0,0.4,0,0.7,0,1.1c0,8.3-0.1,16.7-0.1,25.1c0,0.2,0,0.5,0.2,0.7c0.1,0.2,0.2,0.4,0.2,0.7
		c0.3-0.3,0.9-0.6,1.9-0.7c0.7,0,1.1-0.1,1.3-0.1c1.1,0,2.2,0,3.3,0.1c0.7,0,1.4-0.2,2.1-0.7c0.6-0.4,1.1-1,1.6-1.8
		c0.6-1,1.2-1.9,1.9-2.9c0.7-1,1.4-2,2.2-2.8c0.9-1,1.9-1.7,3-2l0.5-0.2l1.4,0.5l0.2,0.2c0.3,0.3,1,0.8,2.6,1.9c1.4,1,2.8,2,4.3,3
		c1.5,1.1,2.8,2.1,4,3.1c1.6,1.4,2.2,2.3,2.2,3.2c0,0.5-0.2,1.7-2,2.2c-0.8,0.2-1.3,0.3-1.8,0.3h-25.7c-0.3,0-0.6-0.1-1.5-0.3
		c-0.4-0.1-1-0.3-1.5-0.7c-0.1,0.2-0.1,0.5-0.2,0.7c-0.1,0.2-0.2,0.5-0.2,0.7v21c0,0.9-0.4,2.5-2.7,3.5c-1.3,0.5-2.8,1-4.5,1.2
		c-1.6,0.3-3.2,0.4-4.8,0.5C477.8,419.9,476.8,420,476.1,420z M476.4,337.4c0.1,0.3,0.2,0.6,0.2,1V417c0.6,0,1.5,0,2.8-0.1
		c1.5-0.1,3-0.2,4.5-0.5c1.4-0.2,2.7-0.6,3.8-1c0.6-0.2,0.9-0.5,0.9-0.8v-21c0-0.6,0.1-1.3,0.4-1.9c0.1-0.2,0.2-0.5,0.2-0.7
		c0-0.2,0-0.5-0.2-0.7c-0.3-0.6-0.4-1.2-0.4-1.9c0-8.4,0-16.8,0.1-25.1c0-8.3,0.1-16.7,0.1-25.1c0-0.3,0.1-0.7,0.2-1H476.4z
		 M467.1,388.9c1,0,1.9,0,2.8,0.1c1.8,0.1,2.8,0.5,3.4,1.2l0.2,0.3v-28c-0.2,0.7-0.9,1.3-1.7,1.4c-0.4,0.1-0.8,0.1-1.1,0.1
		c-0.4,0.1-1.2,0.1-3.2-0.1c-1.4-0.1-2.9-0.2-4.5-0.3c-1.5-0.1-2.8,0-3.9,0.1c-0.2,0-0.4,0.1-0.5,0.1v25.5c0.5,0,1.3,0,2.5-0.1
		c1.4-0.1,2.9-0.1,4.5-0.2C466.2,388.9,466.7,388.9,467.1,388.9z M503,390.3h17.7c0,0,0,0,0.1,0c-0.2-0.1-0.3-0.3-0.6-0.5
		c-1.1-0.9-2.4-1.9-3.8-3c-1.4-1-2.8-2-4.2-3c-1.2-0.8-2-1.4-2.6-1.9c-0.4,0.2-0.8,0.6-1.2,1c-0.7,0.7-1.3,1.6-1.9,2.4
		c-0.6,1-1.3,1.9-1.8,2.9C504.1,389.1,503.5,389.8,503,390.3z M443.5,390.3h12.2c-0.1-0.2-0.1-0.5-0.1-0.7v-26.3
		c0-0.4,0.1-1.2,0.9-1.8c-0.1,0-0.2-0.1-0.4-0.1c-3.4-1-7.1-2.2-10.9-3.6c-0.7-0.2-1.3-0.2-1.5-0.2c0,0.2-0.1,0.4-0.1,0.8v31
		C443.7,389.7,443.6,390,443.5,390.3z M471.3,360.8C471.3,360.8,471.3,360.8,471.3,360.8C471.3,360.8,471.3,360.8,471.3,360.8z
		 M499.6,360.4h15.3c-0.1-0.1-0.2-0.2-0.3-0.3c-1.1-1-2.4-2.1-3.8-3.2c-1.3-1.1-2.7-2.1-3.9-3c-0.6-0.4-1-0.7-1.3-0.9
		c-0.5,0.8-1,1.6-1.6,2.5c-0.8,1.3-1.8,2.4-2.9,3.5C500.6,359.5,500.1,359.9,499.6,360.4z M449.8,318.9c-0.2,0.3-0.3,0.7-0.4,1.1
		c-0.2,0.5-0.3,1-0.5,1.5l0,0.1c-0.4,1.1-0.8,2.2-1.2,3.3c-0.4,1.1-0.9,2.3-1.4,3.5c-1.4,3.3-2.9,6.7-4.5,9.9
		c-1.5,3.2-3.3,6.5-5.1,9.7c-0.4,0.7-1.2,1.9-2.2,3.4c-1,1.5-2,3.1-3,4.7c-0.8,1.3-1.6,2.5-2.2,3.6c1.1-0.7,2.1-1.4,3-2.2
		c2.1-1.8,4.3-3.6,6.6-5.3c0.9-0.6,1.7-1.2,2.6-1.6c0.7-0.4,1.3-0.8,1.8-1.3l12.9-12.8v-0.9c0-1.3,0.6-2.8,1.8-4.2
		c1-1.2,2.1-2.4,3.2-3.5c1.1-1,2.2-2,3.2-2.8c0.2-0.1,0.3-0.2,0.4-0.3c-0.2-0.2-0.6-0.3-1-0.6c-1.5-0.8-3.3-1.6-5.2-2.4
		c-1.9-0.8-3.8-1.5-5.6-2.1C450.5,319,449.9,319,449.8,318.9L449.8,318.9z M520.2,337.5L520.2,337.5L520.2,337.5z M502.1,335.7h16.3
		c-0.3-0.3-0.7-0.6-1-0.9c-0.9-0.8-1.9-1.6-2.9-2.5c-1-0.9-2.1-1.7-3-2.4c-1-0.7-1.8-1.3-2.6-1.8c-0.2-0.1-0.3-0.2-0.4-0.3
		c-0.1,0.1-0.3,0.3-0.5,0.5c-0.7,0.8-1.5,1.8-2.4,2.9c-0.9,1.1-1.7,2.2-2.5,3.2C502.7,335,502.3,335.4,502.1,335.7z M507.9,327.6
		L507.9,327.6L507.9,327.6z"/>
</g>
<g>
	<path class="st3" d="M33.6,523.2c3.5,0,8.5-0.3,10.5-0.7c-1.3,2.3-2,4.8-2.2,7.5l-18,0c-4.4,0-10.7-3-13.1-6.5
		c-0.7,2.1-2.6,5.2-4.6,7.3c-1.5-2.2-4.5-3.8-6.2-4.4c3.6-3.2,5.6-7.2,6.3-11.8c0.2-1.7,0.3-3.5,0.3-5.3L13,510c0,2.9,0,4.1-0.5,6.7
		c1.5,2,4,4.5,6.2,5.1V508H1v-6.4h16.9V498H4.4v-6.1h13.5v-2.8c0-0.5-0.8-0.3-0.8-1.1c0-0.4,0.4-0.5,0.8-0.5h6.6v4.4h13.9v6.1H24.5
		v3.6h17.9v6.4H25.3v3.6h12.2v6.1H25.3v5.3L33.6,523.2z"/>
	<path class="st3" d="M106.6,493.4h4.2V490c0.1-1-1.9-1.4-0.5-2.3h7.5v5.7h4.1v6.3h-4.2v6.1h5.1v6.5h-5.2v9.9h-6.9v-10H106
		c-0.9,4.1-2.7,8-6.3,10.8l17,0.1c3.4,0,5.1-0.3,7.3-0.5c-1.2,2.3-2,4.8-2.4,7.3l-23.6,0c-3.4,0-6.8-2.3-8.4-5.4
		c-1.9,1.9-4,4.2-5.2,6.4c-1-2-3.3-4.5-5.2-5.8c2.4-1.8,5.1-3.9,7-6.4v-10.1h-6v-6.8h13v16.5c0.4,1.9,2.5,4.8,4.8,4.7
		c-0.8-1.8-2.4-3.5-4-4.9c2.3-1.2,4.2-3.6,4.9-5.9h-4.4v-6.4h5v-6.1h-4.1v-6.3h4.2v-3.5c0-0.9-1.5-0.8-1-1.8l0.5-0.3h7.5V493.4z
		 M85.4,487.1c2.9,2.2,5.5,4.9,7.6,7.7c-2.1,1.2-4.1,2.6-5.8,4.5c-1.6-3-4-5.6-6.6-8.1L85.4,487.1z M110.7,499.7h-4.3v6h4.3V499.7z"
		/>
	<path class="st3" d="M201.1,514.8c-0.1,1.7-1.1,3.2-2.7,4c1.6,1.6,3.9,2,5.3,2.4c-0.4,3.1-1.1,7.9-4.6,8.7l-1.7,0.1h-17.1
		c-1.9,0-4.2-1.8-4.6-3.7l-0.1-1v-15.2l-3.5,1.4l-0.5-2.3l-0.1,21.4h-6.5v-21.9c-0.7,1-1.3,1.7-2.2,2.6c-0.8-2.2-2-4.6-3.9-6.2
		c5.1-5.3,8.2-11.6,11-18l5.8,2.3l-0.6,1.6h6.8v9.7l3.3-1.3v-10.1c0-0.5-1-0.5-1-1.2c0-0.4,0.4-0.7,1-0.7h6v9.4l7.2-2.7l2.7,1V514.8
		z M175.8,492.8c0.1-0.4-0.6-0.3-0.8-0.9l-3.3,6.6v6.2l4.1-1.6V492.8z M194.6,523.9c0.9,0,2.1-0.2,2.4-0.8c0.5-1.4,0.8-2.4,0.8-4
		c-1.3,0.5-3.1,0.3-4.7,0.4c-0.1-1.7-0.9-3-1.8-4.3l-0.1,6h-6v-15.1l-3.2,1.4v15.4c0,0.4,0.4,0.9,0.9,1H194.6z M191.3,513.1
		c1.1,0.2,2.4,0.1,3.4,0c0.5-0.2,0.5-0.7,0.5-1v-10l-3.9,1.4V513.1z"/>
	<path class="st3" d="M254.5,489.3c-1,3.9-2.1,6.4-3.4,9.3l0,31.7h-6.9V510l-1.3,1.4c-0.7-2.5-2.3-4.7-4-6.8
		c4.6-5.5,7.4-11.7,9.2-18.3L254.5,489.3z M263,486.8c2.6,2.5,3.7,4.4,5.1,7.1l0.1-4.3h13.7v35.2c0,2.7-1.8,4.3-4.5,5
		c-1.6,0.4-3.8,0.9-5.4,1c-0.1-0.6-0.1-1.3-0.2-1.9c-0.3-1.8-0.8-3.7-1.9-5.2l3.3,0c0.9,0,1.8-0.4,1.8-1.2v-26.3h-6.8v-1.9
		c-2,0.6-3.9,1.8-5.6,3.3c-0.3-0.9-0.4-1.1-0.6-1.8l-0.2-0.6l-0.1,35h-6.8v-33.3c0-0.7-1.4-0.9-0.8-1.7l0.5-0.2h7
		c-1.1-1.6-1.9-3.2-3.9-5.3L263,486.8z"/>
	<path class="st3" d="M348.5,501.9c-1.3,2.5-2.7,4.8-4.3,7.1c-0.9-0.9-2.3-2-3.4-2.6v22.3h-6.4v-2.8h-7.1v2.7H321v-33h5.1
		c0.8-2.3,1.5-5.1,1.9-7.6l6.8,1c-0.4,2.3-1.1,4.6-2,6.7h8v5.7c2.4-3.8,4.7-9,6.2-14l6.8,1.5c-0.7,2.3-1.6,4.6-2.5,6.8h11.9
		c0,8.9,0,18.4-0.7,26.3c-0.3,3.9-0.5,6.1-3.8,7.6c-2.6,1.2-6.8,1.2-10.5,1.2c-0.5-2.6-1.1-5.3-2.5-7.5c2.7,0.5,5.8,0.7,8.4,0.3
		c1.3-0.3,2.3-0.8,2.4-2.5c0.5-5.7,0.8-12.8,0.5-19.2H348.5z M334.3,501.5h-7v6.3h7V501.5z M334.3,513.5h-7v6.2h7V513.5z M350,507.6
		c2.1,2.6,4.1,6.2,5.2,8.9c-2.2,1-3.8,1.7-5.9,3.1c-0.9-2.9-2.7-7-4.5-9.4L350,507.6z"/>
	<path class="st3" d="M417,526.7l-12.7,3.9l-2-6.8l3.7-0.9v-15.7h-5.6v-6.1h12v20l4.6-1.2L417,526.7z M407.1,488.1
		c3.2,2,5.4,4.4,7,6.7c-1.7,1.4-3.4,2.9-5,4.5c-1.7-2.6-4.1-4.9-6.6-7L407.1,488.1z M434,503.7v-8.6h-16.7v-6.2h22.9v23.2H434v-2.3
		h-9.1v12.5c0,0.7,0.4,1.3,1.1,1.3l9.2,0c1.1,0,2.2-2.2,2.5-5.8l0.3,0.3c1.6,1.1,4,1.9,6.1,2.4c-0.6,2.7-1.3,5.8-3.5,7.8
		c-1.2,1.1-2.8,1.3-4.5,1.3H423c-1.8,0-4.1-1.9-4.1-4.5l0-21.5H434z"/>
	<path class="st3" d="M495.1,495v-5.3h23l2.4,2.5l-2.6,3.5l-5.3,7.6l-4.7,7.3l-4.9,8.4c-0.7,1.2-1.5,2.3-0.9,3.4l0.5,0.4h11.3
		c0.8-0.1,1.6-0.4,2-1.2c0.5-2,0.8-3.7,0.8-6.1c2.1,1,4.3,1.7,6.7,1.9c-0.3,3.3-0.2,6.6-2,9.2c-1.4,2-3.4,2.7-5.7,2.7h-16.2
		c-2.1-0.3-4.3-1.7-5.1-3.8c-1.5-3.2,0.6-6.2,2.1-8.8l3.3-5.8l4-6.3l5.4-8.2h-12.6c1.3,3,2.2,6.1,2.6,9.4c-1.8,0.4-3.8,1.3-5.2,2.2
		c-0.2-3.1-0.5-5.7-1.3-8.3l-0.1,30.8h-7.1v-26.8c-0.5,2.4-1.1,4.8-2,6.9c-1.7-0.7-3.4-1.5-5.3-1.9c1.8-4.2,2.9-8.5,3.2-13.5
		l4.1,0.7v-6.6c-0.3-0.6-1.3-0.8-0.8-1.7c0.1-0.1,0.4-0.3,0.9-0.3h6.8v8.6L495.1,495z"/>
	<path class="st3" d="M571.1,504.2c0.9,2.5,2,6.4,2.2,7.4c0.5,2.5,0.8,5.3-0.3,7.4c-1.3,2.5-3.4,2.8-5.8,3.1c-0.2-1-0.7-2.2-1-3.1
		l-0.1,11.7h-6v-42.1h11.8l1.5,1.4l1.9-2c2.4,1.5,4.2,3.2,5.9,5.4c-1,0.8-2.5,2.5-3.5,3.9c-1.3-1.8-2.4-3-3.8-4.3L571.1,504.2z
		 M566,494.8v6.7c0.6-2.2,1.3-4.6,1.7-6.7H566z M566,516.2c0.6,0.1,1-0.1,1.5-0.2c0.5-0.3,0.8-0.7,0.8-1.3c-0.3-2.4-1.5-5.2-2.2-7.4
		L566,516.2z M604.8,523.7c-0.9,2.2-1.2,3.8-1.5,6.3l0,0.3l-16.7-0.2c-3.2,0-6.2-1.2-8-4c-1.8,1.5-3.3,3.4-4.5,5.2
		c-1-2.3-2.4-4.4-4.3-6.2c1.8-1.1,3.4-2.6,4.8-4.1v-14.3h-1.9V501h7.3v20.5c0.8,1.9,4.2,2.8,6.1,2.8l10.9-0.1
		C599.8,524.2,602,524.1,604.8,523.7z M601.7,494.9v4.7h-7.9l-0.8,0.8c0.7,1,1.6,2,2.2,3.1c1.4-0.8,2.8-2.2,4-3.6l3.8,4
		c-2,1.9-3.7,3.3-5.7,4.5c2.1,3.2,4.7,5.5,7.4,7.6c-1.3,1.2-2.8,3.2-3.7,4.7c-1.1-0.8-2.3-2-3.2-3.1c-0.3,2.3-1.5,4.2-3.7,5.3
		c-1.7,0.6-3.5,0.8-5.4,0.8c-0.1-1.8-0.8-3.4-1.8-4.8c-0.8,0.5-2.5,1.3-4.1,1.8c-0.4-1.9-1.1-3.2-2.2-4.6c3.8-1.2,8.3-3.6,11.1-6
		l-0.2-1c-2.5,1.9-5.6,4-8.6,5c-0.5-1.8-1.1-3.3-2.1-4.8c2.6-0.8,6.4-2.9,8.7-4.7l-0.5-0.8c-2,1.5-3.9,2.6-6.3,3.7
		c-0.3-1.4-1.1-3.1-2.1-4.4c2.5-1,4.4-2.2,6.4-3.8l-4.7-0.1v-4.7h4.3c-0.7-1.5-2.4-3.4-3.6-4.4l3.7-2.6c1.8,1.5,3.3,3.1,4.4,5
		c-1,0.4-2.4,1.1-3.3,2h8.9c-0.6-0.6-1.8-1.3-3.1-1.8c1.9-1.7,2.6-3,3.8-5.2l4,2.2c-0.9,1.8-1.4,2.8-3.1,4.8H601.7z M588.3,518.2
		c0.4,0.1,1.6,0.1,2,0c0.6-0.2,1.2-1.3,1.2-2C590.6,516.9,589.3,517.9,588.3,518.2z"/>
	<path class="st3" d="M684.4,523.4c-0.9,2-2,4.6-2.4,6.9c-6.8,0.2-18.6,0.5-24.8,0.3c-4.1-0.1-7.9-2.2-9.6-4.3
		c-1.7,1.5-4.1,3.2-5.5,4.4c-0.9-2.1-2.6-4.7-3.9-6.3c1.9-1,3.8-2.2,5.6-3.6v-12.4h-4.7V502h11.3v17.6c0.9,1.9,4.4,4.2,7.1,4.4
		C665.7,524.6,675.4,524.2,684.4,523.4z M644.3,487.6c2.3,1,5,2.7,7.3,4.6c-1.5,1.5-3,3.4-3.9,5c-1.7-1.8-4-3.5-7-5L644.3,487.6z
		 M658.7,491.9c-0.7-1.3-1.4-2.4-2.3-3.5l6.5-1.2c1.1,1.5,2.1,3.1,2.8,4.7h2.5c0.8-1.5,1.4-3.2,1.9-4.8l6.5,1.3
		c-0.5,1.1-1.2,2.4-1.9,3.5h6.8v6.2h-11.4l-0.6,1.6h9.9v22.9h-25.4v-23h8.6l0.5-1.6h-11.1v-6.1H658.7z M672.9,504.7h-12.2v1.2h12.2
		V504.7z M672.9,510.3h-12.2v1.2h12.2V510.3z M672.9,516h-12.2v1.2h12.2V516z"/>
</g>
</svg>
